<svg width="464" height="507" viewBox="0 0 464 507" fill="none" xmlns="http://www.w3.org/2000/svg">
<rect x="0.351074" y="-3.84717" width="225.04" height="120.733" rx="12.3197" fill="#2D2D2D"/>
<mask id="mask0_2992_7210" style="mask-type:luminance" maskUnits="userSpaceOnUse" x="31" y="31" width="164" height="51">
<path d="M31.561 31.4693H194.181V81.79H31.561V31.4693Z" fill="white"/>
</mask>
<g mask="url(#mask0_2992_7210)">
<path d="M182.783 67.1291C182.202 67.1291 181.743 67.5903 181.743 68.1679C181.743 68.7458 182.202 69.2061 182.783 69.2061C183.363 69.2061 183.824 68.7458 183.824 68.1679C183.825 68.0311 183.798 67.8956 183.746 67.7692C183.694 67.6427 183.617 67.5278 183.521 67.4312C183.424 67.3346 183.309 67.2581 183.182 67.2062C183.056 67.1543 182.92 67.1282 182.783 67.1291ZM182.783 69.0471C182.307 69.0471 181.901 68.6581 181.901 68.1679C181.901 67.677 182.307 67.29 182.783 67.29C183.258 67.29 183.664 67.677 183.664 68.1679C183.664 68.658 183.258 69.0471 182.783 69.0471Z" fill="white"/>
<path d="M183.293 67.8921C183.293 67.6475 183.095 67.5919 182.888 67.5919H182.395V68.7281H182.554V68.2033H182.747L183.085 68.7281H183.277L182.935 68.2033C183.137 68.1975 183.293 68.1166 183.293 67.8921ZM182.747 68.0453H182.554V67.7525H182.857C182.98 67.7525 183.133 67.7731 183.133 67.8893C183.133 68.0704 182.885 68.0455 182.747 68.0455M176.118 69.2197C176.327 68.6509 176.506 68.0715 176.654 67.4838C176.95 66.2563 177.099 64.9981 177.098 63.7355C177.098 62.997 177.047 62.2663 176.948 61.5472C176.876 62.595 176.693 63.5132 176.693 63.5132C176.736 63.6516 176.812 63.8788 176.848 64.0191L176.847 64.0197C176.737 65.0826 176.535 66.134 176.244 67.1624C176.106 66.6548 175.922 66.1662 175.91 66.1347L175.909 66.133C175.538 67.1209 174.984 68.2842 174.481 69.2197H176.118Z" fill="white"/>
<path d="M172.686 69.2197H173.632C176.326 65.2409 176.461 61.7147 176.461 61.039C176.461 59.7628 176.247 58.5901 175.888 57.6615C175.888 57.6615 175.329 56.2184 174.459 54.9342C174.554 55.2212 174.737 55.803 174.838 56.3226C174.844 56.3572 174.85 56.3878 174.854 56.4161C175.026 56.702 175.799 58.0655 175.903 59.5649L175.903 59.5693C175.903 59.5693 175.357 58.804 174.951 58.3204C174.937 59.1445 174.83 59.9693 174.657 60.7658C174.657 60.7658 175.467 61.7034 175.829 62.308C175.829 62.308 175.583 63.6268 175.055 64.8906C174.517 64.1092 173.831 63.3502 173.831 63.3502C173.43 64.3428 172.921 65.3416 172.356 66.2652C172.356 66.2652 173.382 67.4656 173.607 67.8079C173.306 68.315 173.012 68.7565 172.686 69.2197Z" fill="white"/>
<path d="M169.314 69.2197C171.102 67.2205 172.625 64.8688 173.54 62.3506C174.334 60.166 174.766 57.4979 174.063 55.1247C174.016 54.9649 173.962 54.807 173.902 54.6515C173.677 54.0711 173.386 53.5649 173.068 53.1672C172.213 52.2102 171.244 51.3601 170.185 50.6355C170.338 50.8323 170.479 51.0387 170.606 51.2535C170.606 51.2535 171.898 52.2116 172.648 53.185C171.686 52.4998 171.141 52.2224 171.071 52.1873C171.068 52.1861 171.065 52.1849 171.063 52.1835C171.428 53.0841 171.538 53.8299 171.538 53.8311C171.538 53.8311 172.679 54.4267 173.707 55.3164C173.849 55.9743 173.908 56.6484 173.898 57.3232C172.863 56.4121 171.664 55.7006 171.664 55.7006C171.642 56.4721 171.536 57.2535 171.366 58.0131C171.366 58.0131 172.498 58.7297 173.601 59.7343C173.601 59.7343 173.284 61.1579 172.773 62.2774C171.715 61.2924 170.683 60.5257 170.602 60.4659C170.602 60.4659 170.076 61.8357 169.226 63.2105C170.285 64.1319 171.281 65.0874 171.281 65.0874C170.672 66.0364 169.984 66.9399 169.242 67.7847L169.241 67.7854L167.346 65.8985C166.576 66.8506 165.737 67.7452 164.836 68.575C164.878 68.6229 165.26 69.0464 165.417 69.2197H169.314Z" fill="white"/>
<path d="M169.801 50.8463C169.678 50.6787 169.539 50.5077 169.38 50.3557C169.241 50.2226 169.105 50.1025 168.962 49.9946C167.385 48.8056 164.483 48.2113 164.483 48.2113C164.657 48.3043 164.826 48.4043 164.992 48.5113C165.006 48.5148 166.176 48.8081 167.213 49.3157C167.213 49.3157 166.269 49.1012 165.664 49.0177C165.918 49.2421 166.151 49.4888 166.36 49.7551C166.36 49.7551 168.286 50.1063 169.131 50.5698C169.131 50.5698 169.536 50.9862 169.867 51.7166C168.547 51.1808 167.052 50.9015 167.052 50.9015C167.251 51.346 167.393 51.822 167.48 52.3174C167.48 52.3174 169.123 52.7193 170.358 53.3123C170.464 53.8985 170.503 54.5046 170.481 55.1178C169.023 54.3865 167.575 53.9273 167.575 53.9273C167.546 54.5595 167.444 55.2145 167.274 55.8837C167.274 55.8837 169.265 56.7727 170.159 57.3125C169.962 58.1029 169.684 58.877 169.351 59.6224C167.988 58.7371 166.546 57.9498 166.546 57.9498C166.184 58.8198 165.293 60.2447 165.293 60.2447L165.294 60.2453C165.316 60.2607 166.799 61.2788 167.937 62.1823C167.372 63.0389 166.734 63.8614 166.041 64.6435C165.802 64.4147 163.615 62.4738 163.615 62.4738C162.955 63.2389 162.22 63.9843 161.416 64.6978C161.416 64.6978 161.416 64.6981 161.416 64.6983L163.524 67.0837C163.524 67.0837 163.525 67.0837 163.525 67.084L163.525 67.0843C162.157 68.2098 160.794 69.063 160.794 69.063L159.036 66.5661C159.036 66.5661 157.798 67.5078 155.709 68.4962V69.2197H162.569C170.225 63.4271 172.942 55.144 169.801 50.8463Z" fill="white"/>
<path d="M165.917 49.9773C164.016 47.418 161.039 47.7836 160.152 47.9078C159.177 48.0444 158.44 48.2578 158.44 48.2578C158.658 48.2782 158.954 48.3172 159.168 48.3597C159.326 48.3226 160.694 48.0106 161.689 48.1409L161.692 48.1411C160.961 48.2204 159.964 48.5219 159.86 48.5537C159.858 48.554 159.858 48.5546 159.857 48.5551L159.86 48.5563C159.896 48.5669 160.183 48.6541 160.552 48.8704C160.66 48.8414 162.014 48.4823 163.305 48.4569V48.4572C163.305 48.4572 163.782 48.6689 164.242 48.9845C162.574 48.9781 161.192 49.2985 161.155 49.3073C161.368 49.495 161.557 49.7073 161.719 49.9398C163.548 49.6658 165.127 49.7845 165.127 49.7845C165.127 49.7845 165.341 50.0463 165.438 50.187C165.559 50.3642 165.684 50.5843 165.781 50.7777C163.914 50.5594 162.128 50.7156 162.127 50.7156C162.25 51.0335 162.334 51.3734 162.379 51.7309C162.586 51.7293 164.167 51.7323 166.181 52.0948C166.245 52.5565 166.251 53.0511 166.201 53.573C165.858 53.484 164.205 53.071 162.401 52.892C162.365 53.3428 162.279 53.8122 162.147 54.2935C162.349 54.3411 164.578 54.8723 165.826 55.3781C165.802 55.4571 165.777 55.5358 165.75 55.6143C165.572 56.1503 165.348 56.6885 165.084 57.225C164.079 56.7301 161.614 55.7664 161.614 55.7664C161.367 56.3178 161.066 56.8759 160.714 57.4329C160.714 57.4329 162.827 58.639 163.845 59.3068C163.36 59.9969 162.83 60.6543 162.259 61.2746C161.521 60.6124 159.674 59.1817 159.535 59.0738C158.939 59.7828 158.189 60.5285 157.965 60.7489L160.181 63.2897C160.16 63.3081 160.139 63.3268 160.117 63.3457C159.638 63.7432 159.121 64.1173 158.684 64.4173C158.305 64.6747 157.993 64.8741 157.885 64.9437C157.859 64.9046 156.408 62.5881 156.19 62.2195C156.032 62.3362 155.872 62.4503 155.709 62.5617V67.3237C155.97 67.198 156.231 67.0679 156.492 66.9295C157.741 66.3143 158.954 65.5337 160.082 64.6319C160.869 64.0069 161.615 63.3302 162.312 62.6064C163.202 61.6939 163.974 60.738 164.619 59.7693C167.063 56.1621 167.718 52.401 165.917 49.9773Z" fill="white"/>
<path d="M160.984 49.7844C160.079 48.7452 158.572 48.3893 156.82 48.6396C156.773 48.6467 156.723 48.6535 156.679 48.6609C156.543 48.6842 156.408 48.7108 156.273 48.7408C156.003 48.8036 155.818 48.8655 155.709 48.9074V49.4315C155.881 49.2958 156.058 49.1668 156.239 49.0446C156.588 48.97 156.927 48.9225 157.254 48.901C156.749 49.1897 156.165 49.5813 155.71 49.9428V50.3463L155.725 50.3556C155.725 50.3556 157.009 49.3395 158.029 48.9016C158.266 48.9181 158.502 48.9527 158.734 49.0052C157.21 49.6516 156.085 50.4534 156.007 50.5097C156.118 50.5771 156.224 50.652 156.325 50.7339C156.345 50.7215 157.822 49.7974 159.448 49.2436C159.669 49.3444 159.882 49.47 160.066 49.612C158.296 50.1096 156.594 50.9979 156.594 50.9979C156.69 51.1098 156.775 51.2308 156.848 51.3593L156.878 51.3472C158.69 50.5717 160.615 50.174 160.615 50.174C160.769 50.3862 160.894 50.6185 160.985 50.8645C160.985 50.8645 159.257 51.0621 157.034 51.7752C157.132 52.0822 157.159 52.3132 157.159 52.3152C157.159 52.3152 159.254 51.8464 161.187 51.7945C161.214 52.1049 161.204 52.4534 161.16 52.8109C160.015 52.7506 157.289 52.8957 157.182 52.9041C157.182 52.9041 157.172 53.2968 157.07 53.6663C157.07 53.6663 159.062 53.7303 160.874 54.0683C160.731 54.5081 160.553 54.9359 160.343 55.3478C159.135 54.9851 157.303 54.5446 156.82 54.4339C156.689 54.7549 156.53 55.0637 156.345 55.3568C156.345 55.3568 158.584 56.3339 159.444 56.8119H159.445L159.445 56.8129C159.072 57.3713 158.333 58.153 158.333 58.153C158.131 58.0018 157.928 57.8516 157.724 57.7025C157.13 57.287 156.249 56.6701 155.714 56.2974L155.709 56.2943V58.146L156.871 59.5025C156.498 59.8028 156.111 60.0836 155.71 60.3439V61.4487L155.752 61.4209C156.297 61.0495 156.82 60.6462 157.317 60.2131C161.324 56.7267 162.966 52.0575 160.984 49.7844Z" fill="white"/>
<path d="M155.71 55.0908C156.733 53.6335 156.881 51.961 155.983 51.1445C155.898 51.0678 155.806 51.0021 155.71 50.9454V55.0908ZM161.298 47.2562C170.378 47.2562 177.766 54.6716 177.766 63.7862C177.766 65.6349 177.453 67.4742 176.849 69.2197H180.891V44.038H155.709V48.2381L155.729 48.231C157.514 47.5844 159.399 47.2545 161.298 47.256M145.173 52.0669C144.558 51.5196 143.773 51.0949 142.818 50.7932C141.863 50.4918 140.715 50.3409 139.374 50.3409H132.586V62.9104H139.374C141.787 62.9104 143.656 62.3881 144.98 61.3433C146.304 60.2989 146.966 58.7264 146.966 56.6258C146.966 55.6873 146.821 54.8296 146.53 54.0531C146.24 53.2764 145.787 52.6145 145.173 52.0669ZM142.902 58.2011C142.762 58.6258 142.536 58.9664 142.223 59.2232C141.91 59.4807 141.505 59.6649 141.008 59.7764C140.511 59.8883 139.91 59.9439 139.207 59.9439H136.24V53.3072H139.206C139.932 53.3072 140.544 53.369 141.042 53.4914C141.538 53.6148 141.941 53.8099 142.248 54.0782C142.555 54.3463 142.776 54.6898 142.91 55.1088C143.044 55.5281 143.111 56.0335 143.111 56.6258C143.111 57.2513 143.041 57.7764 142.902 58.2012M118.156 57.7485H125.028V55.2849H118.156V53.207H126.318L126.251 50.3406H114.502V62.9104H126.586L126.653 60.078H118.156L118.156 57.7485ZM95.9501 50.3407L95.8499 53.3072H100.66V62.9102H104.33V53.307H109.14L109.056 50.3407H95.9501ZM86.565 62.9104H90.2856V50.3407H86.565V62.9104ZM76.241 56.5919L76.2747 57.9328L76.241 57.9662L75.2855 56.9942L68.4816 50.3407H65.4647V62.9104H68.7831V56.3074L68.7498 54.9497L68.7998 54.933L69.7552 55.8882L77.1627 62.9104H79.5596V50.3409H76.241V56.5919ZM55.3587 57.4302C55.3587 58.3798 55.0905 59.0867 54.5543 59.5503C54.0181 60.0141 53.1574 60.2457 51.9733 60.2457C50.7777 60.2457 49.9007 60.0141 49.3421 59.5503C48.7832 59.0865 48.5039 58.3798 48.5039 57.4302V50.3409H44.8506V57.3968C44.8506 59.3407 45.4622 60.7904 46.6858 61.7459C47.9092 62.701 49.6715 63.1786 51.9733 63.1786C54.2859 63.1786 56.0347 62.7038 57.2191 61.7542C58.4032 60.8045 58.9957 59.3517 58.9957 57.3968V50.3409H55.3587V57.4302Z" fill="white"/>
</g>
<rect x="0.351074" y="128.384" width="225.04" height="120.733" rx="12.3197" fill="#2D2D2D"/>
<path d="M134.116 203.843C133.32 205.679 132.377 207.37 131.285 208.924C129.797 211.042 128.578 212.509 127.639 213.323C126.183 214.66 124.623 215.345 122.952 215.384C121.753 215.384 120.307 215.043 118.623 214.352C116.934 213.664 115.382 213.323 113.962 213.323C112.474 213.323 110.877 213.664 109.17 214.352C107.46 215.043 106.082 215.403 105.028 215.439C103.426 215.507 101.83 214.803 100.236 213.323C99.2185 212.438 97.9462 210.919 96.4218 208.768C94.7864 206.471 93.4418 203.807 92.3885 200.77C91.2603 197.49 90.6948 194.313 90.6948 191.238C90.6948 187.716 91.4573 184.677 92.9845 182.131C94.1848 180.086 95.7816 178.473 97.7801 177.289C99.7785 176.104 101.938 175.501 104.263 175.462C105.536 175.462 107.204 175.855 109.278 176.627C111.346 177.402 112.673 177.795 113.255 177.795C113.691 177.795 115.166 177.336 117.666 176.42C120.03 175.57 122.026 175.219 123.661 175.357C128.091 175.714 131.419 177.457 133.632 180.598C129.67 182.995 127.71 186.351 127.749 190.657C127.785 194.011 129.004 196.802 131.399 199.018C132.485 200.047 133.697 200.842 135.046 201.406C134.753 202.253 134.444 203.064 134.116 203.843ZM123.956 163.931C123.956 166.56 122.994 169.014 121.077 171.286C118.763 173.987 115.964 175.548 112.928 175.301C112.888 174.971 112.867 174.638 112.867 174.305C112.867 171.782 113.968 169.081 115.922 166.873C116.898 165.754 118.139 164.825 119.644 164.083C121.145 163.353 122.565 162.949 123.901 162.879C123.94 163.231 123.956 163.582 123.956 163.931Z" fill="white"/>
<rect x="0.351074" y="260.616" width="225.04" height="120.733" rx="12.3197" fill="#2D2D2D"/>
<path d="M82.8342 335.229C80.5376 335.137 78.6587 334.503 77.1895 333.326C76.9091 333.102 76.241 332.428 76.0168 332.143C75.4211 331.388 75.016 330.653 74.7458 329.837C73.9145 327.327 74.3424 324.033 75.9696 320.417C77.3629 317.322 79.5128 314.252 83.2636 310C83.8162 309.375 85.4615 307.545 85.4721 307.545C85.4761 307.545 85.3864 307.702 85.2735 307.892C84.2983 309.539 83.4638 311.479 83.0092 313.159C82.2789 315.853 82.367 318.166 83.2672 319.959C83.8881 321.195 84.9526 322.265 86.1497 322.856C88.2453 323.892 91.3135 323.977 95.0603 323.107C95.3183 323.047 108.101 319.625 123.467 315.504C138.833 311.382 151.407 308.013 151.409 308.016C151.413 308.019 115.71 323.422 97.1756 331.413C94.2404 332.678 93.4555 332.998 92.0756 333.486C88.5481 334.735 85.3884 335.331 82.8342 335.229Z" fill="white"/>
<rect x="0.351074" y="392.847" width="225.04" height="120.733" rx="12.3197" fill="#2D2D2D"/>
<mask id="mask1_2992_7210" style="mask-type:luminance" maskUnits="userSpaceOnUse" x="46" y="434" width="133" height="39">
<path d="M46.3447 472.123H178.576V434.735H46.3447V472.123Z" fill="white"/>
</mask>
<g mask="url(#mask1_2992_7210)">
<path d="M110.009 463.991H105.908C105.89 463.991 105.879 463.987 105.868 463.974L102.334 459.659L98.7968 463.974C98.7894 463.987 98.7766 463.991 98.7582 463.991H95.4745C95.4543 463.991 95.4396 463.982 95.4249 463.96C95.4194 463.947 95.4194 463.923 95.4322 463.908L100.637 457.515L95.4928 451.183C95.4866 451.174 95.4825 451.164 95.4809 451.154C95.4793 451.143 95.4803 451.132 95.4837 451.122C95.4929 451.111 95.5131 451.093 95.5296 451.093H99.6324C99.6452 451.093 99.66 451.1 99.671 451.119L102.771 454.961L105.926 451.117C105.935 451.1 105.95 451.093 105.965 451.093H109.309C109.329 451.093 109.35 451.111 109.357 451.122C109.361 451.132 109.363 451.143 109.361 451.153C109.36 451.164 109.356 451.174 109.35 451.183L104.466 457.047L110.044 463.908C110.058 463.923 110.064 463.947 110.053 463.96C110.05 463.969 110.044 463.977 110.036 463.982C110.028 463.988 110.019 463.991 110.009 463.991ZM132.205 453.367C130.389 453.367 129.149 454.469 128.795 456.384H134.973V456.261C134.973 454.728 133.843 453.367 132.205 453.367ZM138.159 458.349C138.154 458.357 138.148 458.363 138.14 458.367C138.133 458.371 138.124 458.373 138.115 458.373H128.729C128.923 460.559 130.343 461.804 132.64 461.804C134.055 461.804 135.557 461.321 137.68 460.191C137.719 460.169 137.757 460.202 137.757 460.243L137.753 463.13C137.75 463.154 137.739 463.168 137.722 463.174C135.748 464.006 133.764 464.573 132.205 464.573C128.163 464.573 125.234 461.628 125.234 457.571C125.234 453.514 128.163 450.568 132.205 450.568C135.893 450.568 138.262 453.053 138.262 456.471C138.262 457.023 138.167 458.309 138.159 458.349ZM157.227 448.43C156.076 448.43 155.139 447.508 155.139 446.373C155.139 445.205 156.076 444.259 157.227 444.259C158.379 444.259 159.317 445.205 159.317 446.373C159.317 447.508 158.379 448.43 157.227 448.43ZM155.542 463.991C155.508 463.991 155.488 463.971 155.488 463.938V451.146C155.488 451.121 155.507 451.101 155.529 451.095H158.919C158.931 451.097 158.942 451.103 158.95 451.113C158.958 451.122 158.962 451.134 158.961 451.146V463.938C158.961 463.971 158.939 463.991 158.912 463.991H155.542ZM116.209 462.065C115.598 462.065 114.972 461.978 114.252 461.786L114.259 453.58C115.102 453.312 115.835 453.185 116.56 453.185C118.911 453.185 120.489 454.919 120.489 457.494C120.489 460.27 118.808 462.065 116.209 462.065ZM117.131 450.57C116.175 450.57 115.209 450.744 114.195 451.093H110.821C110.794 451.093 110.773 451.117 110.773 451.146V472.124C111.793 471.984 113.041 471.62 114.254 470.757L114.252 464.377C115.084 464.494 115.771 464.573 116.434 464.573C121.054 464.573 124.044 461.804 124.044 457.516C124.044 453.427 121.199 450.57 117.131 450.57ZM149.368 461.002C148.312 461.557 147.368 461.82 146.481 461.82C144.389 461.82 143.135 460.341 143.135 457.866C143.135 455.001 144.736 453.148 147.212 453.148C147.895 453.148 148.56 453.315 149.368 453.68V461.002ZM149.368 444.321V451.017C148.378 450.734 147.506 450.604 146.626 450.604C142.606 450.604 139.57 453.634 139.57 457.66C139.57 461.667 142.248 464.573 145.932 464.573C147.208 464.573 148.402 464.253 149.807 463.53L149.805 464.685C150.733 464.508 151.798 464.137 152.848 463.394V442.951C151.816 443.089 150.593 443.434 149.368 444.321ZM170.707 460.977C169.686 461.567 168.81 461.85 168.028 461.85C165.787 461.85 164.445 460.377 164.445 457.892C164.445 455.069 166.026 453.176 168.377 453.176C169.007 453.176 169.771 453.416 170.707 453.912V460.977ZM174.191 450.939C174.191 450.86 174.123 450.797 174.046 450.797L171.306 450.801C171.267 450.801 171.23 450.817 171.202 450.844C171.174 450.872 171.158 450.909 171.157 450.948V451.414H171.087C169.822 450.86 168.744 450.604 167.681 450.604C163.89 450.604 160.918 453.747 160.918 457.774C160.918 461.846 163.578 464.575 167.535 464.575C168.595 464.575 169.952 464.501 171.223 463.04V464.685C172.121 464.494 173.181 464.112 174.187 463.389L174.191 450.939ZM86.0945 460.79L94.605 460.787C94.4536 461.928 94.0475 463.022 93.4168 463.986H84.5628C83.4792 463.986 82.5885 463.146 82.482 462.085C82.4765 462.068 82.471 462.054 82.4691 462.039V445.255C82.471 445.242 82.4765 445.224 82.482 445.213C82.5885 444.149 83.4792 443.306 84.5628 443.306C84.5977 443.306 84.6308 443.31 84.6602 443.31L94.5867 443.308C94.4563 444.258 94.1349 445.4 93.3984 446.531H86.0945V451.101H93.325C93.3544 451.101 93.3764 451.121 93.3764 451.15V454.32C93.3764 454.346 93.3544 454.37 93.325 454.37H86.0945V460.787V460.79ZM75.441 464.252C74.5999 464.252 74.0802 463.595 74.0802 462.79C74.0802 461.929 74.6752 461.328 75.441 461.328C76.1995 461.328 76.7927 461.929 76.7927 462.79C76.7927 463.654 76.1995 464.252 75.441 464.252ZM75.441 461.163C74.5797 461.163 73.8433 461.811 73.8433 462.79C73.8433 463.716 74.5081 464.412 75.441 464.412C76.2914 464.412 77.0315 463.767 77.0315 462.79C77.0315 461.811 76.2914 461.163 75.441 461.163Z" fill="white"/>
<path d="M75.059 462.656V462.063H75.4594C75.6614 462.063 75.9001 462.094 75.9001 462.34C75.9001 462.632 75.6798 462.656 75.4282 462.656H75.059ZM76.1958 462.379C76.1958 461.991 75.9571 461.826 75.4943 461.826H74.7651V463.749H75.0829V462.926H75.3767L75.8744 463.749H76.2326L75.6926 462.904C75.9846 462.869 76.1958 462.728 76.1958 462.379ZM176.989 453.222C176.148 453.222 175.625 452.565 175.625 451.76C175.625 450.899 176.222 450.298 176.989 450.298C177.746 450.298 178.341 450.899 178.341 451.76C178.341 452.623 177.746 453.222 176.989 453.222ZM176.989 450.133C176.128 450.133 175.391 450.781 175.391 451.76C175.391 452.686 176.054 453.382 176.989 453.382C177.838 453.382 178.576 452.735 178.576 451.76C178.576 450.781 177.838 450.133 176.989 450.133Z" fill="white"/>
<path d="M176.606 451.626V451.035H177.006C177.208 451.035 177.447 451.064 177.447 451.31C177.447 451.604 177.225 451.626 176.977 451.626H176.606ZM177.743 451.349C177.743 450.961 177.504 450.796 177.041 450.796H176.312V452.719H176.626V451.898H176.924L177.421 452.719H177.778L177.24 451.874C177.53 451.841 177.743 451.698 177.743 451.349ZM64.4631 446.516L63.8461 444.769L58.6119 437.774L59.5522 437.541L68.577 445.342L73.8883 443.823C74.5127 443.662 75.2217 443.627 75.7616 443.631C74.0922 440.031 71.038 437.076 67.0049 435.64C59.0325 432.799 50.2667 436.964 47.431 444.94C46.5532 447.407 46.3438 449.952 46.7129 452.373L59.4365 447.952L64.4631 446.516ZM76.3206 445.009C75.8541 445.312 75.1691 445.709 74.4896 445.928L69.1673 447.446L65.6154 458.848L64.6934 459.147L65.4428 450.44L65.024 448.631L60.036 450.054L46.8532 453.158C47.8964 458.232 51.4887 462.651 56.7247 464.517C64.699 467.358 73.4611 463.191 76.2967 455.221C77.5199 451.784 77.4409 448.199 76.3206 445.009Z" fill="white"/>
<path d="M65.0238 448.632L65.4443 450.439L64.6932 459.146L65.6151 458.847L69.167 447.448L74.4893 445.929C75.1688 445.71 75.8539 445.31 76.3204 445.011C76.1565 444.542 75.9702 444.082 75.762 443.631C75.2221 443.628 74.5132 443.664 73.8888 443.822L68.5775 445.345L59.5508 437.54L58.6124 437.775L63.8447 444.77L64.4636 446.515L59.4351 447.955L46.7134 452.371C46.7538 452.636 46.7997 452.899 46.8529 453.159L60.0375 450.056L65.0238 448.632Z" fill="#2D2D2D"/>
</g>
<rect x="238.532" y="-3.84717" width="225.04" height="120.733" rx="12.3197" fill="#2D2D2D"/>
<mask id="mask2_2992_7210" style="mask-type:luminance" maskUnits="userSpaceOnUse" x="278" y="45" width="147" height="25">
<path d="M278.348 45.1763H424.26V69.6372H278.348V45.1763Z" fill="white"/>
</mask>
<g mask="url(#mask2_2992_7210)">
<mask id="mask3_2992_7210" style="mask-type:luminance" maskUnits="userSpaceOnUse" x="278" y="45" width="147" height="25">
<path d="M278.349 69.6377H424.261V45.1768H278.349V69.6377Z" fill="white"/>
</mask>
<g mask="url(#mask3_2992_7210)">
<path d="M335.569 47.8539C335.569 46.6398 336.561 45.6578 337.782 45.6578C339.007 45.6578 340.003 46.6398 340.003 47.8539C340.003 49.0667 339.007 50.0498 337.782 50.0498C336.561 50.0498 335.569 49.0666 335.569 47.8539Z" fill="#6C6C6C"/>
<path d="M370.551 62.4628C370.551 61.2482 371.543 60.265 372.764 60.265C373.988 60.265 374.984 61.2482 374.984 62.4628C374.984 63.6744 373.988 64.6587 372.764 64.6587C371.543 64.6587 370.551 63.6746 370.551 62.4628Z" fill="white"/>
<path d="M299.181 61.5129C297.271 61.5129 295.944 60.0146 295.944 57.8735C295.944 55.7329 297.271 54.2356 299.181 54.2356C301.101 54.2356 302.443 55.7329 302.443 57.8735C302.443 60.0485 301.129 61.5129 299.181 61.5129ZM299.181 51.037C295.141 51.037 292.209 53.9129 292.209 57.8735C292.209 61.8341 295.141 64.7095 299.181 64.7095C303.236 64.7095 306.18 61.8341 306.18 57.8735C306.18 53.9129 303.236 51.037 299.181 51.037ZM331.275 58.2154C331.118 57.9234 330.938 57.6763 330.746 57.4801L330.624 57.352L330.752 57.2302C330.938 57.0371 331.127 56.8081 331.31 56.5427L334.875 51.3066H330.547L327.869 55.4025C327.717 55.6222 327.411 55.7329 326.953 55.7329H326.342V47.9893C326.342 46.4404 325.366 46.2296 324.311 46.2296H322.504L322.507 64.5081H326.342V59.0253H326.702C327.139 59.0253 327.436 59.0752 327.573 59.31L329.688 63.255C330.279 64.3255 330.868 64.5081 331.976 64.5081H334.915L332.726 60.9312L331.275 58.2154ZM349.891 51.0077C347.941 51.0077 346.696 51.8638 345.999 52.5879L345.766 52.8205L345.684 52.5041C345.479 51.7285 344.788 51.3018 343.749 51.3018H342.03L342.041 64.5035H345.85V58.4189C345.85 57.824 345.928 57.3077 346.087 56.8368C346.511 55.4113 347.694 54.525 349.172 54.525C350.361 54.525 350.825 55.1448 350.825 56.7468V62.4965C350.825 63.8639 351.465 64.5035 352.85 64.5035H354.663L354.657 56.107C354.657 52.7711 353.009 51.0077 349.891 51.0077ZM337.833 51.3076H336.027L336.04 61.515L336.038 64.5066H337.965C337.99 64.5066 338.009 64.5092 338.033 64.5092L338.931 64.5066H339.824V64.5014H339.83L339.838 53.3117C339.838 51.9616 339.184 51.3076 337.833 51.3076ZM314.141 61.5129C312.232 61.5129 310.902 60.0146 310.902 57.8735C310.902 55.7329 312.232 54.2356 314.141 54.2356C316.057 54.2356 317.403 55.7329 317.403 57.8735C317.403 60.0485 316.09 61.5129 314.141 61.5129ZM314.141 51.037C310.097 51.037 307.165 53.9129 307.165 57.8735C307.165 61.8341 310.097 64.7095 314.141 64.7095C318.192 64.7095 321.141 61.8341 321.141 57.8735C321.141 53.9129 318.192 51.037 314.141 51.037Z" fill="#6C6C6C"/>
</g>
</g>
<mask id="mask4_2992_7210" style="mask-type:luminance" maskUnits="userSpaceOnUse" x="278" y="45" width="147" height="25">
<path d="M278.348 45.1763H424.26V69.6372H278.348V45.1763Z" fill="white"/>
</mask>
<g mask="url(#mask4_2992_7210)">
<mask id="mask5_2992_7210" style="mask-type:luminance" maskUnits="userSpaceOnUse" x="278" y="45" width="147" height="25">
<path d="M278.348 45.6573H424.229V69.6055H278.348V45.6573Z" fill="white"/>
</mask>
<g mask="url(#mask5_2992_7210)">
<mask id="mask6_2992_7210" style="mask-type:luminance" maskUnits="userSpaceOnUse" x="278" y="45" width="147" height="25">
<path d="M278.348 69.6377H424.26V45.1768H278.348V69.6377Z" fill="white"/>
</mask>
<g mask="url(#mask6_2992_7210)">
<path d="M395.781 61.5129C393.872 61.5129 392.541 60.0146 392.541 57.8735C392.541 55.7329 393.872 54.2356 395.781 54.2356C397.697 54.2356 399.043 55.7329 399.043 57.8735C399.043 60.0485 397.729 61.5129 395.781 61.5129ZM395.781 51.037C391.738 51.037 388.805 53.9129 388.805 57.8735C388.805 61.8341 391.738 64.7095 395.781 64.7095C399.832 64.7095 402.78 61.8341 402.78 57.8735C402.78 53.9129 399.832 51.037 395.781 51.037Z" fill="white"/>
<path d="M362.687 60.9326C360.605 60.9326 359.864 59.1377 359.864 57.4556C359.864 56.7145 360.053 54.2991 362.487 54.2991C363.696 54.2991 365.308 54.6416 365.308 57.58C365.308 60.3514 363.882 60.9326 362.687 60.9326ZM367.286 51.2726C366.563 51.2726 366.007 51.5575 365.728 52.0774L365.623 52.2792L365.446 52.1278C364.831 51.6021 363.729 50.9787 361.939 50.9787C358.378 50.9787 355.98 53.6215 355.98 57.5545C355.98 61.4828 358.461 64.2281 362.011 64.2281C363.223 64.2281 364.182 63.9486 364.941 63.3804L365.235 63.1622V63.5293C365.235 65.2925 364.081 66.2652 361.989 66.2652C360.972 66.2652 360.047 66.0206 359.428 65.7988C358.62 65.5579 358.146 65.7573 357.818 66.5582L357.516 67.2972L357.088 68.3767L357.353 68.5161C358.692 69.2181 360.435 69.6372 362.011 69.6372C365.255 69.6372 369.042 67.9968 369.042 63.3804L369.056 51.2726H367.286Z" fill="#6C6C6C"/>
</g>
</g>
</g>
<mask id="mask7_2992_7210" style="mask-type:luminance" maskUnits="userSpaceOnUse" x="278" y="45" width="147" height="25">
<path d="M278.348 45.1763H424.26V69.6372H278.348V45.1763Z" fill="white"/>
</mask>
<g mask="url(#mask7_2992_7210)">
<mask id="mask8_2992_7210" style="mask-type:luminance" maskUnits="userSpaceOnUse" x="278" y="45" width="147" height="25">
<path d="M278.349 69.6377H424.261V45.1768H278.349V69.6377Z" fill="white"/>
</mask>
<g mask="url(#mask8_2992_7210)">
<path d="M284.995 61.3614L281.895 61.3584V57.696C281.895 56.9132 282.202 56.5062 282.881 56.4126H284.995C286.504 56.4126 287.479 57.3531 287.481 58.8743C287.479 60.4356 286.529 61.3605 284.995 61.3614ZM281.895 51.4817V50.5179C281.895 49.6743 282.256 49.273 283.049 49.2215H284.635C285.996 49.2215 286.811 50.0261 286.811 51.3719C286.811 52.3983 286.253 53.5958 284.685 53.5958H281.895V51.4817ZM288.955 55.1369L288.394 54.8257L288.884 54.4123C289.453 53.9288 290.407 52.8422 290.407 50.9646C290.407 48.0915 288.151 46.2372 284.66 46.2372H280.676L280.223 46.2362C279.188 46.2737 278.36 47.1053 278.348 48.1342V64.4415H280.176C280.181 64.4424 280.183 64.4415 280.184 64.4424L284.739 64.4415C288.62 64.4415 291.124 62.3545 291.124 59.1219C291.124 57.3816 290.316 55.8936 288.955 55.1369Z" fill="#6C6C6C"/>
<path d="M419.794 51.0506C418.214 51.0506 416.686 51.7818 415.706 53.008L415.429 53.3535L415.213 52.9669C414.508 51.696 413.293 51.0506 411.605 51.0506C409.835 51.0506 408.647 52.0264 408.096 52.6066L407.735 52.9929L407.596 52.4849C407.395 51.7537 406.736 51.3509 405.738 51.3509H404.137L404.121 64.5015H407.759V58.6964C407.759 58.1879 407.822 57.6847 407.951 57.1587C408.299 55.7559 409.253 54.2472 410.857 54.398C411.846 54.4917 412.329 55.247 412.329 56.7057V64.5015H415.992V58.6964C415.992 58.061 416.052 57.5854 416.197 57.108C416.492 55.7689 417.488 54.3961 419.036 54.3961C420.156 54.3961 420.57 55.0226 420.57 56.7057V62.5791C420.57 63.9078 421.17 64.5015 422.514 64.5015H424.226L424.229 56.1062C424.229 52.7525 422.735 51.0506 419.794 51.0506ZM386.7 59.9356C386.689 59.9486 385.123 61.5792 383.063 61.5792C381.185 61.5792 379.289 60.441 379.289 57.9002C379.289 55.7065 380.759 54.1733 382.864 54.1733C383.548 54.1733 384.325 54.4153 384.447 54.8223L384.465 54.891C384.745 55.8137 385.594 55.8632 385.761 55.8632L387.754 55.8653V54.1442C387.754 51.874 384.831 51.0507 382.864 51.0507C378.659 51.0507 375.607 53.9437 375.607 57.9278C375.607 61.9103 378.625 64.7993 382.787 64.7993C386.398 64.7993 388.362 62.4541 388.38 62.4308L388.485 62.3037L386.907 59.7171L386.7 59.9356Z" fill="white"/>
</g>
</g>
<rect x="238.532" y="128.384" width="225.04" height="120.733" rx="12.3197" fill="#2D2D2D"/>
<path d="M368.297 195.128C370.891 195.128 371.693 193.323 372.236 191.147H371.019C369.335 191.147 366.538 191.437 366.538 193.713C366.538 194.657 367.417 195.128 368.297 195.128ZM371.693 195.311H371.64C370.449 196.83 369.258 197.694 367.339 197.694C364.931 197.694 363.222 196.332 363.222 193.846C363.222 189.395 368.143 189.054 371.407 189.054H372.624C372.729 188.686 372.729 188.294 372.729 187.903C372.729 186.541 371.278 186.148 370.06 186.148C368.532 186.148 367.055 186.541 365.683 187.195L366.175 184.394C367.651 183.871 369.154 183.582 370.709 183.582C373.375 183.582 375.889 184.578 375.889 187.745C375.889 189.552 374.568 194.84 374.256 197.381H371.33L371.693 195.311ZM281.703 183.884H284.216L284.811 181.11L288.542 179.878L287.687 183.884H290.795L290.252 186.45H287.143L285.874 192.342C285.796 192.656 285.719 193.127 285.719 193.65C285.719 194.461 286.263 194.959 287.039 194.959C287.662 194.959 288.283 194.828 288.723 194.645L288.128 197.368C287.532 197.498 286.859 197.683 286.263 197.683C283.905 197.683 282.247 196.739 282.247 194.146C282.247 193.1 282.454 192.079 282.687 191.007L283.672 186.45H281.159L281.703 183.884ZM293.491 178.071H296.962L296.237 181.424H292.765L293.491 178.071ZM292.221 183.884H295.693L292.843 197.368H289.371L292.221 183.884ZM306.175 186.973C305.502 186.528 304.595 186.293 303.636 186.293C300.865 186.293 299.311 188.911 299.311 191.451C299.311 193.204 299.88 194.959 302.264 194.959C303.119 194.959 304.182 194.723 305.087 194.278L304.698 197.055C303.636 197.578 302.496 197.683 301.356 197.683C297.911 197.683 295.684 195.353 295.684 191.87C295.684 187.158 298.766 183.571 303.558 183.571C304.855 183.571 306.098 183.807 307.03 184.094L306.175 186.973ZM309.982 177.732H313.454L311.147 188.781H311.201L316.045 183.884H320.552L314.155 190.037L318.168 197.368H314.257L310.811 190.221H310.76L309.257 197.368H305.864L309.982 177.732ZM333.065 183.884H335.578L336.173 181.11L339.904 179.878L339.05 183.884H342.158L341.614 186.45H338.505L337.236 192.342C337.158 192.656 337.081 193.127 337.081 193.65C337.081 194.461 337.624 194.959 338.402 194.959C339.024 194.959 339.645 194.828 340.085 194.645L339.491 197.368C338.894 197.498 338.221 197.683 337.624 197.683C335.267 197.683 333.609 196.739 333.609 194.146C333.609 193.1 333.816 192.079 334.05 191.007L335.033 186.45H332.521L333.065 183.884Z" fill="white"/>
<path d="M331.904 188.701C331.904 185.273 329.728 183.57 326.438 183.57C322.06 183.57 318.847 187.603 318.847 191.791C318.847 195.796 321.438 197.683 325.273 197.683C326.697 197.683 328.174 197.342 329.521 196.922L329.961 194.146C328.666 194.75 327.292 195.117 325.868 195.117C323.648 195.117 322.35 194.319 322.184 192.199H322.181C322.175 192.077 322.163 191.956 322.163 191.827C322.163 191.802 322.165 191.777 322.165 191.752C322.165 191.737 322.163 191.727 322.163 191.712H322.166C322.181 190.79 322.382 189.879 322.731 189.037C323.398 187.322 324.34 186.136 326.386 186.136C327.836 186.136 328.588 186.947 328.588 188.388C328.588 188.701 328.562 188.99 328.511 189.303H323.761C323.452 190.363 323.399 191.073 323.393 191.712H331.567C331.774 190.717 331.904 189.722 331.904 188.701ZM343.656 185.377C343.759 184.853 343.863 184.304 343.94 183.884H347.179L346.868 185.69H346.92C347.853 184.304 349.38 183.57 351.012 183.57C352.593 183.57 354.225 184.512 354.406 186.136H354.458C355.34 184.382 357.283 183.57 359.147 183.57C361.141 183.57 362.852 185.219 362.852 187.261C362.852 188.465 362.539 189.827 362.255 190.926L360.856 197.368H357.384L358.784 190.796C358.966 189.984 359.224 188.726 359.224 187.916C359.224 186.92 358.474 186.293 357.593 186.293C355.183 186.293 354.587 189.121 354.146 190.954L352.774 197.368H349.303L350.702 190.796C350.884 189.984 351.142 188.726 351.142 187.916C351.142 186.92 350.39 186.293 349.509 186.293C347.153 186.293 346.505 189.146 346.065 190.954L344.691 197.368H341.221L343.656 185.377ZM386.199 186.629C385.827 186.424 384.869 186.136 383.885 186.136C382.848 186.136 381.553 186.424 381.553 187.496C381.553 189.199 386.06 189.827 386.06 193.126C386.06 196.636 383.03 197.683 380.052 197.683C378.652 197.683 377.252 197.473 375.984 196.87L376.736 194.069C377.718 194.618 378.704 195.117 380.052 195.117C381.215 195.117 382.434 194.723 382.434 193.624C382.434 191.451 377.926 191.24 377.926 187.863C377.926 184.697 380.957 183.57 383.703 183.57C384.973 183.57 386.269 183.806 386.951 183.986L386.199 186.629ZM388.419 183.884H390.931L391.527 181.11L395.256 179.878L394.402 183.884H397.51L396.967 186.45H393.857L392.588 192.341C392.511 192.656 392.432 193.126 392.432 193.649C392.432 194.461 392.978 194.958 393.754 194.958C394.376 194.958 394.998 194.828 395.438 194.645L394.841 197.368C394.245 197.498 393.573 197.683 392.978 197.683C390.62 197.683 388.962 196.739 388.962 194.146C388.962 193.1 389.17 192.079 389.403 191.006L390.387 186.45H387.873L388.419 183.884ZM411.953 185.69C412.061 185.089 412.164 184.487 412.264 183.884H415.58L415.113 186.424H415.166C415.789 184.958 417.496 183.57 419.103 183.57C419.544 183.57 420.009 183.595 420.424 183.701L419.699 187.13C419.311 186.999 418.816 186.92 418.377 186.92C415.915 186.92 414.724 189.146 414.285 191.32L413.041 197.368H409.57L411.953 185.69ZM409.544 188.701C409.544 185.273 407.368 183.57 404.078 183.57C399.701 183.57 396.487 187.603 396.487 191.791C396.487 195.796 399.078 197.683 402.913 197.683C404.336 197.683 405.814 197.342 407.162 196.922L407.601 194.146C406.306 194.75 404.933 195.117 403.508 195.117C401.287 195.117 399.99 194.319 399.823 192.199H399.82C399.815 192.077 399.803 191.956 399.803 191.827C399.803 191.802 399.805 191.777 399.805 191.752C399.805 191.737 399.803 191.727 399.803 191.712H399.805C399.82 190.79 400.021 189.879 400.37 189.037C401.036 187.322 401.979 186.136 404.026 186.136C405.476 186.136 406.228 186.947 406.228 188.388C406.228 188.701 406.201 188.99 406.151 189.303H401.401C401.091 190.363 401.038 191.073 401.031 191.712H409.207C409.414 190.717 409.544 189.722 409.544 188.701Z" fill="white"/>
<rect x="238.532" y="260.616" width="225.04" height="120.733" rx="12.3197" fill="#2D2D2D"/>
<path d="M350.795 330.866C354.954 330.866 357.725 328.17 357.725 323.621V311.983H353.176V323.439C353.176 325.556 352.416 326.605 350.82 326.605C349.28 326.605 348.62 325.531 348.62 323.439V311.983H344.046V323.621C344.052 328.271 346.584 330.866 350.795 330.866Z" fill="white"/>
<path d="M369.916 313.001C368.659 312.115 367.17 311.983 365.209 311.983H359.039V330.577H363.588V324.588H364.895C366.83 324.588 368.294 324.456 369.476 323.753C371.329 322.628 372.429 320.642 372.429 318.236C372.429 315.904 371.568 314.151 369.916 313.001ZM364.48 320.561H363.644V316.143H364.845C366.862 316.143 367.829 316.772 367.829 318.311C367.823 319.982 366.73 320.561 364.48 320.561Z" fill="white"/>
<path d="M408.516 330.577V311.983H403.973V322.314L397.142 311.983H393.039V330.577H397.588V320.221L404.519 330.577H408.516Z" fill="white"/>
<path d="M339.992 314.39C338.189 312.612 335.839 311.644 333.35 311.644C330.711 311.644 328.405 312.561 326.577 314.365C324.748 316.168 323.749 318.525 323.749 321.088C323.749 323.834 324.641 326.134 326.388 327.994C328.217 329.929 330.573 330.922 333.319 330.922C335.908 330.922 338.365 329.904 340.168 328.019C341.921 326.216 342.864 323.834 342.864 321.17C342.87 318.625 341.877 316.244 339.992 314.39ZM333.325 326.316C330.762 326.316 328.437 324.067 328.437 321.139C328.437 318.418 330.604 316.25 333.382 316.25C335.996 316.25 338.17 318.418 338.17 321.139C338.164 324.167 335.996 326.316 333.325 326.316Z" fill="white"/>
<path d="M389.269 314.39C387.466 312.612 385.109 311.644 382.627 311.644C379.982 311.644 377.682 312.561 375.854 314.365C374.025 316.168 373.026 318.525 373.026 321.088C373.026 323.834 373.918 326.134 375.665 327.994C377.5 329.929 379.85 330.922 382.596 330.922C385.185 330.922 387.642 329.904 389.445 328.019C391.198 326.216 392.141 323.834 392.141 321.17C392.147 318.625 391.154 316.244 389.269 314.39ZM382.602 326.316C380.038 326.316 377.713 324.067 377.713 321.139C377.713 318.418 379.888 316.25 382.659 316.25C385.273 316.25 387.447 318.418 387.447 321.139C387.441 324.167 385.266 326.316 382.602 326.316Z" fill="white"/>
<path d="M292.086 327.987C293.915 329.923 296.246 330.941 298.992 330.941C302.159 330.941 305.137 329.37 306.915 326.781C307.99 325.21 308.511 323.432 308.511 321.339C308.511 320.95 308.486 320.529 308.461 320.108H297.867V323.821H303.177C302.259 325.443 300.72 326.335 298.992 326.335C296.428 326.335 294.128 324.06 294.128 321.101C294.128 318.43 296.271 316.212 298.992 316.212C300.456 316.212 301.656 316.815 302.812 318.015H307.99C306.501 314.038 303.02 311.606 299.048 311.606C296.409 311.606 294.109 312.549 292.275 314.352C290.446 316.155 289.453 318.512 289.453 321.075C289.447 323.828 290.333 326.127 292.086 327.987Z" fill="white"/>
<path d="M318.835 324.193C321.474 323.457 323.045 321.214 323.045 318.204C323.045 315.904 322.184 314.151 320.532 313.001C319.275 312.115 317.786 311.983 315.825 311.983H309.655V330.577H314.204V324.588L317.761 330.577H323.385L318.835 324.193ZM315.096 320.561H314.21V316.143H315.467C317.478 316.143 318.446 316.772 318.446 318.311C318.446 319.982 317.346 320.561 315.096 320.561Z" fill="white"/>
<path d="M411.249 314.34C411.639 314.34 411.972 314.201 412.242 313.925C412.518 313.648 412.65 313.315 412.65 312.932C412.65 312.542 412.512 312.216 412.242 311.946C411.972 311.675 411.639 311.537 411.249 311.537C410.866 311.537 410.533 311.675 410.262 311.946C409.986 312.222 409.854 312.549 409.854 312.932C409.854 313.322 409.992 313.655 410.262 313.925C410.533 314.201 410.859 314.34 411.249 314.34ZM410.401 312.078C410.639 311.839 410.922 311.719 411.255 311.719C411.588 311.719 411.877 311.839 412.11 312.078C412.342 312.31 412.462 312.599 412.462 312.932C412.462 313.265 412.342 313.554 412.11 313.793C411.877 314.032 411.595 314.151 411.255 314.151C410.922 314.151 410.633 314.032 410.401 313.793C410.168 313.554 410.049 313.271 410.049 312.932C410.049 312.599 410.162 312.316 410.401 312.078Z" fill="white"/>
<path d="M411.872 313.673C411.866 313.661 411.86 313.636 411.86 313.592C411.86 313.554 411.853 313.51 411.853 313.479V313.366C411.853 313.29 411.828 313.208 411.772 313.127C411.715 313.045 411.627 312.995 411.508 312.976C411.602 312.963 411.677 312.938 411.728 312.901C411.828 312.838 411.878 312.731 411.878 312.599C411.878 312.404 411.797 312.272 411.64 312.209C411.552 312.172 411.413 312.153 411.219 312.153H410.678V313.692H410.948V313.089H411.162C411.307 313.089 411.407 313.108 411.464 313.139C411.564 313.196 411.608 313.315 411.608 313.491V313.611L411.614 313.661V313.68C411.614 313.686 411.614 313.692 411.621 313.692H411.872V313.673ZM411.464 312.863C411.407 312.888 411.319 312.894 411.206 312.894H410.961V312.335H411.193C411.344 312.335 411.451 312.354 411.52 312.392C411.589 312.429 411.621 312.505 411.621 312.618C411.621 312.743 411.564 312.825 411.464 312.863Z" fill="white"/>
<rect x="238.532" y="392.847" width="225.04" height="120.733" rx="12.3197" fill="#2D2D2D"/>
<path d="M303.528 426.157V450.327H316.166C321.14 450.327 325.736 448.579 325.736 443.444C325.736 439.972 323.239 438.388 320.492 437.558C322.166 436.886 324.064 435.474 324.064 432.513C324.064 428.724 320.31 426.157 315.255 426.157H303.528ZM311.27 431.786H314.116C315.275 431.786 316.159 432.695 316.159 433.618C316.159 434.475 315.241 435.392 314.116 435.392H311.27L311.27 431.786ZM311.27 440.408H315.027C316.339 440.408 317.439 441.406 317.439 442.546C317.439 443.757 316.41 444.762 314.8 444.762H311.27V440.408ZM309.79 452.964V477.134H322.428C327.402 477.134 331.998 475.386 331.998 470.251C331.998 466.779 329.501 465.195 326.754 464.365C328.427 463.693 330.326 462.281 330.326 459.32C330.326 455.531 326.571 452.964 321.517 452.964H309.79ZM317.532 458.593H320.378C321.537 458.593 322.42 459.502 322.42 460.425C322.42 461.282 321.502 462.199 320.378 462.199H317.532V458.593ZM317.532 467.215H321.289C322.601 467.215 323.701 468.213 323.701 469.353C323.701 470.564 322.672 471.569 321.061 471.569H317.532V467.215ZM326.344 450.325V426.154H345.812V431.991H334.063V435.161H343.604V440.634H334.063V444.51H345.812V450.324L326.344 450.325ZM356.359 451.016C361.839 451.016 366.222 447.886 366.222 442.814C366.222 434.627 355.587 435.887 355.587 433.338C355.587 432.353 356.621 431.831 357.681 431.831C359.509 431.831 360.829 433.036 360.829 433.036L365.405 428.674C363.575 426.93 360.685 425.463 356.791 425.463C350.944 425.463 347.118 428.939 347.118 433.131C347.118 441.422 357.6 440.218 357.6 442.82C357.6 443.732 356.724 444.649 355.135 444.649C353.331 444.649 351.902 443.558 350.79 442.633L346.188 447.027C348.041 448.835 351.016 451.016 356.359 451.016ZM372.18 450.325V431.969H365.805V426.154H386.298V431.969H379.922V450.324L372.18 450.325ZM332.264 452.947H339.983V467.426C339.983 468.897 341.445 470.252 342.968 470.252C344.405 470.252 345.858 469.028 345.858 467.349V452.947H353.554V467.25C353.554 472.926 348.849 477.454 342.764 477.454C336.645 477.454 332.264 472.526 332.264 466.941V452.947ZM363.072 477.117V468.48L354 452.947H361.81L366.943 461.27L372.094 452.947H379.922L370.814 468.569V477.117H363.072Z" fill="white"/>
<path d="M399.186 466.174V481.452H379.922L375.369 476.891V470.735L379.922 466.174H399.186ZM378.151 472.785C377.585 472.785 377.126 473.244 377.126 473.811C377.126 474.378 377.585 474.837 378.151 474.837C378.717 474.837 379.175 474.378 379.175 473.811C379.175 473.244 378.717 472.785 378.151 472.785Z" fill="#6C6C6C"/>
</svg>
