<svg width="530" height="507" viewBox="0 0 530 507" fill="none" xmlns="http://www.w3.org/2000/svg">
<circle cx="258" cy="254" r="39.5" fill="#E8E7E7" stroke="#817777"/>
<circle cx="257.5" cy="253.5" r="61" stroke="#A3A0A0"/>
<circle cx="257.5" cy="253.5" r="86" stroke="#A3A0A0" stroke-opacity="0.8"/>
<circle cx="258" cy="254" r="113.5" stroke="#A3A0A0" stroke-opacity="0.6"/>
<circle cx="258" cy="254" r="138.5" stroke="#A3A0A0" stroke-opacity="0.4"/>
<circle cx="257.5" cy="253.5" r="164" stroke="#A3A0A0" stroke-opacity="0.2"/>
<g filter="url(#filter0_d_2885_5692)">
<rect x="28" y="150" width="160" height="50" rx="12" fill="#ABE9FA" shape-rendering="crispEdges"/>
<rect x="27.5" y="149.5" width="161" height="51" rx="12.5" stroke="black" shape-rendering="crispEdges"/>
<path d="M40 183.26H58V165.26H40V183.26Z" fill="black"/>
<path d="M97.8899 180.108V170.852H100.466V180.108H97.8899ZM94.5469 176.771V174.189H103.803V176.771H94.5469ZM110.179 183.636V167.273H111.228V183.636H110.179ZM112.704 172.834C112.662 172.365 112.472 172.001 112.135 171.741C111.803 171.477 111.328 171.344 110.71 171.344C110.301 171.344 109.96 171.398 109.687 171.504C109.414 171.611 109.21 171.758 109.074 171.945C108.937 172.129 108.867 172.339 108.863 172.578C108.854 172.774 108.892 172.947 108.978 173.096C109.067 173.245 109.195 173.377 109.361 173.492C109.532 173.603 109.736 173.701 109.975 173.786C110.213 173.871 110.482 173.946 110.78 174.01L111.905 174.266C112.553 174.406 113.124 174.594 113.618 174.828C114.117 175.062 114.534 175.342 114.871 175.665C115.212 175.989 115.47 176.362 115.645 176.784C115.819 177.206 115.909 177.679 115.913 178.203C115.909 179.03 115.7 179.739 115.287 180.332C114.873 180.924 114.279 181.378 113.503 181.693C112.732 182.009 111.801 182.166 110.71 182.166C109.615 182.166 108.66 182.002 107.846 181.674C107.032 181.346 106.399 180.847 105.948 180.178C105.496 179.509 105.264 178.663 105.251 177.641H108.281C108.306 178.062 108.419 178.414 108.62 178.695C108.82 178.977 109.095 179.19 109.444 179.335C109.798 179.479 110.207 179.552 110.672 179.552C111.098 179.552 111.46 179.494 111.758 179.379C112.061 179.264 112.293 179.104 112.455 178.9C112.617 178.695 112.7 178.461 112.704 178.197C112.7 177.95 112.623 177.739 112.474 177.564C112.325 177.385 112.095 177.232 111.784 177.104C111.477 176.972 111.085 176.85 110.608 176.739L109.24 176.42C108.106 176.16 107.213 175.74 106.561 175.161C105.909 174.577 105.586 173.788 105.59 172.795C105.586 171.986 105.803 171.276 106.242 170.667C106.681 170.058 107.288 169.582 108.064 169.241C108.839 168.901 109.723 168.73 110.716 168.73C111.73 168.73 112.61 168.903 113.356 169.248C114.106 169.589 114.688 170.068 115.101 170.686C115.515 171.304 115.725 172.02 115.734 172.834H112.704ZM122.819 168.909V182H119.661V171.862H119.584L116.657 173.652V170.916L119.885 168.909H122.819ZM124.993 182V179.724L129.768 175.544C130.126 175.22 130.43 174.924 130.682 174.656C130.933 174.383 131.125 174.11 131.257 173.837C131.389 173.56 131.455 173.26 131.455 172.936C131.455 172.574 131.376 172.265 131.219 172.009C131.061 171.749 130.844 171.549 130.567 171.408C130.29 171.268 129.972 171.197 129.614 171.197C129.252 171.197 128.934 171.272 128.662 171.421C128.389 171.566 128.176 171.777 128.023 172.054C127.873 172.331 127.799 172.668 127.799 173.064H124.801C124.801 172.173 125.001 171.404 125.402 170.756C125.802 170.109 126.365 169.61 127.089 169.261C127.818 168.907 128.664 168.73 129.627 168.73C130.62 168.73 131.483 168.896 132.216 169.229C132.949 169.561 133.515 170.026 133.916 170.622C134.321 171.214 134.523 171.903 134.523 172.687C134.523 173.185 134.423 173.68 134.223 174.17C134.023 174.66 133.662 175.201 133.143 175.793C132.627 176.386 131.894 177.095 130.944 177.922L129.378 179.366V179.45H134.683V182H124.993ZM141.165 182.32C140.023 182.32 139.039 182.049 138.212 181.508C137.385 180.962 136.748 180.18 136.301 179.162C135.853 178.139 135.632 176.91 135.636 175.474C135.64 174.038 135.864 172.819 136.307 171.817C136.755 170.812 137.39 170.047 138.212 169.523C139.039 168.994 140.023 168.73 141.165 168.73C142.307 168.73 143.292 168.994 144.118 169.523C144.949 170.047 145.589 170.812 146.036 171.817C146.483 172.823 146.705 174.042 146.701 175.474C146.701 176.914 146.477 178.146 146.03 179.168C145.582 180.191 144.945 180.973 144.118 181.514C143.296 182.051 142.312 182.32 141.165 182.32ZM141.165 179.731C141.847 179.731 142.399 179.384 142.821 178.689C143.243 177.99 143.451 176.918 143.447 175.474C143.447 174.528 143.351 173.748 143.16 173.134C142.968 172.516 142.701 172.056 142.361 171.754C142.02 171.451 141.621 171.3 141.165 171.3C140.488 171.3 139.94 171.643 139.523 172.329C139.105 173.011 138.894 174.059 138.89 175.474C138.885 176.433 138.977 177.227 139.165 177.858C139.356 178.489 139.625 178.96 139.97 179.271C140.315 179.577 140.714 179.731 141.165 179.731ZM149.014 182.185C148.554 182.185 148.159 182.023 147.831 181.7C147.507 181.376 147.348 180.984 147.352 180.523C147.348 180.072 147.507 179.686 147.831 179.366C148.159 179.043 148.554 178.881 149.014 178.881C149.448 178.881 149.832 179.043 150.164 179.366C150.501 179.686 150.671 180.072 150.676 180.523C150.671 180.83 150.591 181.109 150.433 181.361C150.279 181.612 150.077 181.812 149.826 181.962C149.578 182.111 149.308 182.185 149.014 182.185ZM156.846 182.32C155.704 182.32 154.72 182.049 153.893 181.508C153.067 180.962 152.429 180.18 151.982 179.162C151.535 178.139 151.313 176.91 151.317 175.474C151.322 174.038 151.545 172.819 151.988 171.817C152.436 170.812 153.071 170.047 153.893 169.523C154.72 168.994 155.704 168.73 156.846 168.73C157.988 168.73 158.973 168.994 159.799 169.523C160.63 170.047 161.27 170.812 161.717 171.817C162.165 172.823 162.386 174.042 162.382 175.474C162.382 176.914 162.158 178.146 161.711 179.168C161.263 180.191 160.626 180.973 159.799 181.514C158.977 182.051 157.993 182.32 156.846 182.32ZM156.846 179.731C157.528 179.731 158.08 179.384 158.502 178.689C158.924 177.99 159.133 176.918 159.128 175.474C159.128 174.528 159.032 173.748 158.841 173.134C158.649 172.516 158.383 172.056 158.042 171.754C157.701 171.451 157.302 171.3 156.846 171.3C156.169 171.3 155.621 171.643 155.204 172.329C154.786 173.011 154.575 174.059 154.571 175.474C154.567 176.433 154.658 177.227 154.846 177.858C155.037 178.489 155.306 178.96 155.651 179.271C155.996 179.577 156.395 179.731 156.846 179.731ZM168.888 182.32C167.746 182.32 166.762 182.049 165.935 181.508C165.108 180.962 164.471 180.18 164.024 179.162C163.576 178.139 163.355 176.91 163.359 175.474C163.363 174.038 163.587 172.819 164.03 171.817C164.478 170.812 165.113 170.047 165.935 169.523C166.762 168.994 167.746 168.73 168.888 168.73C170.03 168.73 171.015 168.994 171.841 169.523C172.672 170.047 173.311 170.812 173.759 171.817C174.206 172.823 174.428 174.042 174.424 175.474C174.424 176.914 174.2 178.146 173.752 179.168C173.305 180.191 172.668 180.973 171.841 181.514C171.019 182.051 170.034 182.32 168.888 182.32ZM168.888 179.731C169.57 179.731 170.122 179.384 170.544 178.689C170.966 177.99 171.174 176.918 171.17 175.474C171.17 174.528 171.074 173.748 170.882 173.134C170.691 172.516 170.424 172.056 170.083 171.754C169.742 171.451 169.344 171.3 168.888 171.3C168.211 171.3 167.663 171.643 167.245 172.329C166.828 173.011 166.617 174.059 166.613 175.474C166.608 176.433 166.7 177.227 166.887 177.858C167.079 178.489 167.348 178.96 167.693 179.271C168.038 179.577 168.436 179.731 168.888 179.731Z" fill="black"/>
</g>
<g filter="url(#filter1_d_2885_5692)">
<rect x="343" y="124" width="160" height="50" rx="12" fill="#FFDA2A" shape-rendering="crispEdges"/>
<rect x="342.5" y="123.5" width="161" height="51" rx="12.5" stroke="black" shape-rendering="crispEdges"/>
<path d="M355 158.26H373V140.26H355V158.26Z" fill="black"/>
<path d="M422.89 154.108V144.852H425.466V154.108H422.89ZM419.547 150.771V148.189H428.803V150.771H419.547ZM435.179 157.636V141.273H436.228V157.636H435.179ZM437.704 146.834C437.662 146.365 437.472 146.001 437.135 145.741C436.803 145.477 436.328 145.344 435.71 145.344C435.301 145.344 434.96 145.398 434.687 145.504C434.414 145.611 434.21 145.758 434.074 145.945C433.937 146.129 433.867 146.339 433.863 146.578C433.854 146.774 433.892 146.947 433.978 147.096C434.067 147.245 434.195 147.377 434.361 147.492C434.532 147.603 434.736 147.701 434.975 147.786C435.213 147.871 435.482 147.946 435.78 148.01L436.905 148.266C437.553 148.406 438.124 148.594 438.618 148.828C439.117 149.062 439.534 149.342 439.871 149.665C440.212 149.989 440.47 150.362 440.645 150.784C440.819 151.206 440.909 151.679 440.913 152.203C440.909 153.03 440.7 153.739 440.287 154.332C439.873 154.924 439.279 155.378 438.503 155.693C437.732 156.009 436.801 156.166 435.71 156.166C434.615 156.166 433.66 156.002 432.846 155.674C432.032 155.346 431.399 154.847 430.948 154.178C430.496 153.509 430.264 152.663 430.251 151.641H433.281C433.306 152.062 433.419 152.414 433.62 152.695C433.82 152.977 434.095 153.19 434.444 153.335C434.798 153.479 435.207 153.552 435.672 153.552C436.098 153.552 436.46 153.494 436.758 153.379C437.061 153.264 437.293 153.104 437.455 152.9C437.617 152.695 437.7 152.461 437.704 152.197C437.7 151.95 437.623 151.739 437.474 151.564C437.325 151.385 437.095 151.232 436.784 151.104C436.477 150.972 436.085 150.85 435.608 150.739L434.24 150.42C433.106 150.16 432.213 149.74 431.561 149.161C430.909 148.577 430.586 147.788 430.59 146.795C430.586 145.986 430.803 145.276 431.242 144.667C431.681 144.058 432.288 143.582 433.064 143.241C433.839 142.901 434.723 142.73 435.716 142.73C436.73 142.73 437.61 142.903 438.356 143.248C439.106 143.589 439.688 144.068 440.101 144.686C440.515 145.304 440.725 146.02 440.734 146.834H437.704ZM442.322 156L447.601 145.543V145.46H441.427V142.909H450.874V145.479L445.575 156H442.322ZM456.727 156.179C455.772 156.179 454.924 156.006 454.183 155.661C453.441 155.316 452.855 154.841 452.425 154.236C451.999 153.631 451.777 152.936 451.76 152.152H454.828C454.854 152.634 455.05 153.021 455.416 153.315C455.783 153.605 456.22 153.75 456.727 153.75C457.123 153.75 457.475 153.663 457.781 153.488C458.088 153.313 458.329 153.068 458.504 152.753C458.678 152.433 458.764 152.067 458.759 151.653C458.764 151.232 458.676 150.863 458.497 150.548C458.323 150.232 458.08 149.987 457.769 149.812C457.462 149.634 457.108 149.544 456.708 149.544C456.328 149.54 455.968 149.623 455.627 149.793C455.291 149.964 455.035 150.196 454.86 150.49L452.067 149.966L452.636 142.909H461.035V145.46H455.237L454.937 148.547H455.014C455.231 148.185 455.58 147.886 456.062 147.652C456.548 147.413 457.1 147.294 457.717 147.294C458.502 147.294 459.2 147.477 459.814 147.844C460.432 148.206 460.918 148.709 461.271 149.352C461.629 149.996 461.808 150.733 461.808 151.564C461.808 152.463 461.595 153.26 461.169 153.955C460.747 154.649 460.155 155.195 459.392 155.591C458.634 155.983 457.745 156.179 456.727 156.179ZM464.222 156.185C463.762 156.185 463.368 156.023 463.04 155.7C462.716 155.376 462.556 154.984 462.56 154.523C462.556 154.072 462.716 153.686 463.04 153.366C463.368 153.043 463.762 152.881 464.222 152.881C464.657 152.881 465.04 153.043 465.373 153.366C465.709 153.686 465.88 154.072 465.884 154.523C465.88 154.83 465.799 155.109 465.641 155.361C465.488 155.612 465.285 155.812 465.034 155.962C464.787 156.111 464.516 156.185 464.222 156.185ZM472.055 156.32C470.913 156.32 469.928 156.049 469.102 155.508C468.275 154.962 467.638 154.18 467.19 153.162C466.743 152.139 466.521 150.91 466.526 149.474C466.53 148.038 466.754 146.819 467.197 145.817C467.644 144.812 468.279 144.047 469.102 143.523C469.928 142.994 470.913 142.73 472.055 142.73C473.197 142.73 474.181 142.994 475.008 143.523C475.839 144.047 476.478 144.812 476.925 145.817C477.373 146.823 477.594 148.042 477.59 149.474C477.59 150.914 477.366 152.146 476.919 153.168C476.472 154.191 475.834 154.973 475.008 155.514C474.185 156.051 473.201 156.32 472.055 156.32ZM472.055 153.731C472.736 153.731 473.288 153.384 473.71 152.689C474.132 151.99 474.341 150.918 474.337 149.474C474.337 148.528 474.241 147.748 474.049 147.134C473.857 146.516 473.591 146.056 473.25 145.754C472.909 145.451 472.511 145.3 472.055 145.3C471.377 145.3 470.83 145.643 470.412 146.329C469.994 147.011 469.783 148.059 469.779 149.474C469.775 150.433 469.866 151.227 470.054 151.858C470.246 152.489 470.514 152.96 470.859 153.271C471.205 153.577 471.603 153.731 472.055 153.731ZM484.096 156.32C482.954 156.32 481.97 156.049 481.143 155.508C480.317 154.962 479.679 154.18 479.232 153.162C478.785 152.139 478.563 150.91 478.567 149.474C478.572 148.038 478.795 146.819 479.238 145.817C479.686 144.812 480.321 144.047 481.143 143.523C481.97 142.994 482.954 142.73 484.096 142.73C485.238 142.73 486.223 142.994 487.049 143.523C487.88 144.047 488.52 144.812 488.967 145.817C489.415 146.823 489.636 148.042 489.632 149.474C489.632 150.914 489.408 152.146 488.961 153.168C488.513 154.191 487.876 154.973 487.049 155.514C486.227 156.051 485.243 156.32 484.096 156.32ZM484.096 153.731C484.778 153.731 485.33 153.384 485.752 152.689C486.174 151.99 486.383 150.918 486.378 149.474C486.378 148.528 486.282 147.748 486.091 147.134C485.899 146.516 485.633 146.056 485.292 145.754C484.951 145.451 484.552 145.3 484.096 145.3C483.419 145.3 482.871 145.643 482.454 146.329C482.036 147.011 481.825 148.059 481.821 149.474C481.817 150.433 481.908 151.227 482.096 151.858C482.287 152.489 482.556 152.96 482.901 153.271C483.246 153.577 483.645 153.731 484.096 153.731Z" fill="black"/>
</g>
<g filter="url(#filter2_d_2885_5692)">
<rect x="317" y="331" width="160" height="50" rx="12" fill="#FF7261" shape-rendering="crispEdges"/>
<rect x="316.5" y="330.5" width="161" height="51" rx="12.5" stroke="black" shape-rendering="crispEdges"/>
<path d="M329 365.26H347V347.26H329V365.26Z" fill="black"/>
<path d="M381.89 361.108V351.852H384.466V361.108H381.89ZM378.547 357.771V355.189H387.803V357.771H378.547ZM394.179 364.636V348.273H395.228V364.636H394.179ZM396.704 353.834C396.662 353.365 396.472 353.001 396.135 352.741C395.803 352.477 395.328 352.344 394.71 352.344C394.301 352.344 393.96 352.398 393.687 352.504C393.414 352.611 393.21 352.758 393.074 352.945C392.937 353.129 392.867 353.339 392.863 353.578C392.854 353.774 392.892 353.947 392.978 354.096C393.067 354.245 393.195 354.377 393.361 354.492C393.532 354.603 393.736 354.701 393.975 354.786C394.213 354.871 394.482 354.946 394.78 355.01L395.905 355.266C396.553 355.406 397.124 355.594 397.618 355.828C398.117 356.062 398.534 356.342 398.871 356.665C399.212 356.989 399.47 357.362 399.645 357.784C399.819 358.206 399.909 358.679 399.913 359.203C399.909 360.03 399.7 360.739 399.287 361.332C398.873 361.924 398.279 362.378 397.503 362.693C396.732 363.009 395.801 363.166 394.71 363.166C393.615 363.166 392.66 363.002 391.846 362.674C391.032 362.346 390.399 361.847 389.948 361.178C389.496 360.509 389.264 359.663 389.251 358.641H392.281C392.306 359.062 392.419 359.414 392.62 359.695C392.82 359.977 393.095 360.19 393.444 360.335C393.798 360.479 394.207 360.552 394.672 360.552C395.098 360.552 395.46 360.494 395.758 360.379C396.061 360.264 396.293 360.104 396.455 359.9C396.617 359.695 396.7 359.461 396.704 359.197C396.7 358.95 396.623 358.739 396.474 358.564C396.325 358.385 396.095 358.232 395.784 358.104C395.477 357.972 395.085 357.85 394.608 357.739L393.24 357.42C392.106 357.16 391.213 356.74 390.561 356.161C389.909 355.577 389.586 354.788 389.59 353.795C389.586 352.986 389.803 352.276 390.242 351.667C390.681 351.058 391.288 350.582 392.064 350.241C392.839 349.901 393.723 349.73 394.716 349.73C395.73 349.73 396.61 349.903 397.356 350.248C398.106 350.589 398.688 351.068 399.101 351.686C399.515 352.304 399.725 353.02 399.734 353.834H396.704ZM400.606 360.827V358.359L405.969 349.909H408.161V353.259H406.889L403.751 358.232V358.334H411.517V360.827H400.606ZM406.927 363V360.072L406.991 358.992V349.909H409.951V363H406.927ZM417.87 363.32C416.728 363.32 415.743 363.049 414.917 362.508C414.09 361.962 413.453 361.18 413.005 360.162C412.558 359.139 412.336 357.91 412.341 356.474C412.345 355.038 412.569 353.819 413.012 352.817C413.459 351.812 414.094 351.047 414.917 350.523C415.743 349.994 416.728 349.73 417.87 349.73C419.012 349.73 419.996 349.994 420.823 350.523C421.654 351.047 422.293 351.812 422.74 352.817C423.188 353.823 423.409 355.042 423.405 356.474C423.405 357.914 423.181 359.146 422.734 360.168C422.287 361.191 421.649 361.973 420.823 362.514C420 363.051 419.016 363.32 417.87 363.32ZM417.87 360.731C418.551 360.731 419.103 360.384 419.525 359.689C419.947 358.99 420.156 357.918 420.152 356.474C420.152 355.528 420.056 354.748 419.864 354.134C419.672 353.516 419.406 353.056 419.065 352.754C418.724 352.451 418.326 352.3 417.87 352.3C417.192 352.3 416.645 352.643 416.227 353.329C415.809 354.011 415.598 355.059 415.594 356.474C415.59 357.433 415.681 358.227 415.869 358.858C416.061 359.489 416.329 359.96 416.674 360.271C417.02 360.577 417.418 360.731 417.87 360.731ZM429.911 363.32C428.769 363.32 427.785 363.049 426.958 362.508C426.132 361.962 425.494 361.18 425.047 360.162C424.6 359.139 424.378 357.91 424.382 356.474C424.387 355.038 424.61 353.819 425.053 352.817C425.501 351.812 426.136 351.047 426.958 350.523C427.785 349.994 428.769 349.73 429.911 349.73C431.053 349.73 432.038 349.994 432.864 350.523C433.695 351.047 434.335 351.812 434.782 352.817C435.23 353.823 435.451 355.042 435.447 356.474C435.447 357.914 435.223 359.146 434.776 360.168C434.328 361.191 433.691 361.973 432.864 362.514C432.042 363.051 431.058 363.32 429.911 363.32ZM429.911 360.731C430.593 360.731 431.145 360.384 431.567 359.689C431.989 358.99 432.198 357.918 432.193 356.474C432.193 355.528 432.097 354.748 431.906 354.134C431.714 353.516 431.448 353.056 431.107 352.754C430.766 352.451 430.367 352.3 429.911 352.3C429.234 352.3 428.686 352.643 428.269 353.329C427.851 354.011 427.64 355.059 427.636 356.474C427.632 357.433 427.723 358.227 427.911 358.858C428.102 359.489 428.371 359.96 428.716 360.271C429.061 360.577 429.46 360.731 429.911 360.731ZM437.76 363.185C437.3 363.185 436.906 363.023 436.577 362.7C436.254 362.376 436.094 361.984 436.098 361.523C436.094 361.072 436.254 360.686 436.577 360.366C436.906 360.043 437.3 359.881 437.76 359.881C438.195 359.881 438.578 360.043 438.91 360.366C439.247 360.686 439.418 361.072 439.422 361.523C439.418 361.83 439.337 362.109 439.179 362.361C439.026 362.612 438.823 362.812 438.572 362.962C438.325 363.111 438.054 363.185 437.76 363.185ZM445.592 363.32C444.45 363.32 443.466 363.049 442.639 362.508C441.813 361.962 441.176 361.18 440.728 360.162C440.281 359.139 440.059 357.91 440.063 356.474C440.068 355.038 440.291 353.819 440.735 352.817C441.182 351.812 441.817 351.047 442.639 350.523C443.466 349.994 444.45 349.73 445.592 349.73C446.735 349.73 447.719 349.994 448.546 350.523C449.377 351.047 450.016 351.812 450.463 352.817C450.911 353.823 451.132 355.042 451.128 356.474C451.128 357.914 450.904 359.146 450.457 360.168C450.009 361.191 449.372 361.973 448.546 362.514C447.723 363.051 446.739 363.32 445.592 363.32ZM445.592 360.731C446.274 360.731 446.826 360.384 447.248 359.689C447.67 358.99 447.879 357.918 447.874 356.474C447.874 355.528 447.779 354.748 447.587 354.134C447.395 353.516 447.129 353.056 446.788 352.754C446.447 352.451 446.048 352.3 445.592 352.3C444.915 352.3 444.367 352.643 443.95 353.329C443.532 354.011 443.321 355.059 443.317 356.474C443.313 357.433 443.404 358.227 443.592 358.858C443.784 359.489 444.052 359.96 444.397 360.271C444.742 360.577 445.141 360.731 445.592 360.731ZM457.634 363.32C456.492 363.32 455.508 363.049 454.681 362.508C453.854 361.962 453.217 361.18 452.77 360.162C452.322 359.139 452.101 357.91 452.105 356.474C452.109 355.038 452.333 353.819 452.776 352.817C453.224 351.812 453.859 351.047 454.681 350.523C455.508 349.994 456.492 349.73 457.634 349.73C458.776 349.73 459.761 349.994 460.587 350.523C461.418 351.047 462.057 351.812 462.505 352.817C462.952 353.823 463.174 355.042 463.17 356.474C463.17 357.914 462.946 359.146 462.499 360.168C462.051 361.191 461.414 361.973 460.587 362.514C459.765 363.051 458.78 363.32 457.634 363.32ZM457.634 360.731C458.316 360.731 458.868 360.384 459.29 359.689C459.712 358.99 459.92 357.918 459.916 356.474C459.916 355.528 459.82 354.748 459.629 354.134C459.437 353.516 459.17 353.056 458.829 352.754C458.489 352.451 458.09 352.3 457.634 352.3C456.957 352.3 456.409 352.643 455.991 353.329C455.574 354.011 455.363 355.059 455.359 356.474C455.354 357.433 455.446 358.227 455.633 358.858C455.825 359.489 456.094 359.96 456.439 360.271C456.784 360.577 457.182 360.731 457.634 360.731Z" fill="black"/>
</g>
<g filter="url(#filter3_d_2885_5692)">
<rect x="233" y="61" width="50" height="50" rx="12" fill="#B6F3AD"/>
<rect x="232.5" y="60.5" width="51" height="51" rx="12.5" stroke="black"/>
<path d="M249 95.26H267V77.26H249V95.26Z" fill="black"/>
</g>
<g filter="url(#filter4_d_2885_5692)">
<rect x="151" y="297" width="50" height="50" rx="12" fill="#31A7FE"/>
<rect x="150.5" y="296.5" width="51" height="51" rx="12.5" stroke="black"/>
<path d="M167 330.26H185V312.26H167V330.26Z" fill="black"/>
</g>
<defs>
<filter id="filter0_d_2885_5692" x="27" y="149" width="164" height="54" filterUnits="userSpaceOnUse" color-interpolation-filters="sRGB">
<feFlood flood-opacity="0" result="BackgroundImageFix"/>
<feColorMatrix in="SourceAlpha" type="matrix" values="0 0 0 0 0 0 0 0 0 0 0 0 0 0 0 0 0 0 127 0" result="hardAlpha"/>
<feOffset dx="2" dy="2"/>
<feComposite in2="hardAlpha" operator="out"/>
<feColorMatrix type="matrix" values="0 0 0 0 0 0 0 0 0 0 0 0 0 0 0 0 0 0 1 0"/>
<feBlend mode="normal" in2="BackgroundImageFix" result="effect1_dropShadow_2885_5692"/>
<feBlend mode="normal" in="SourceGraphic" in2="effect1_dropShadow_2885_5692" result="shape"/>
</filter>
<filter id="filter1_d_2885_5692" x="342" y="123" width="164" height="54" filterUnits="userSpaceOnUse" color-interpolation-filters="sRGB">
<feFlood flood-opacity="0" result="BackgroundImageFix"/>
<feColorMatrix in="SourceAlpha" type="matrix" values="0 0 0 0 0 0 0 0 0 0 0 0 0 0 0 0 0 0 127 0" result="hardAlpha"/>
<feOffset dx="2" dy="2"/>
<feComposite in2="hardAlpha" operator="out"/>
<feColorMatrix type="matrix" values="0 0 0 0 0 0 0 0 0 0 0 0 0 0 0 0 0 0 1 0"/>
<feBlend mode="normal" in2="BackgroundImageFix" result="effect1_dropShadow_2885_5692"/>
<feBlend mode="normal" in="SourceGraphic" in2="effect1_dropShadow_2885_5692" result="shape"/>
</filter>
<filter id="filter2_d_2885_5692" x="316" y="330" width="164" height="54" filterUnits="userSpaceOnUse" color-interpolation-filters="sRGB">
<feFlood flood-opacity="0" result="BackgroundImageFix"/>
<feColorMatrix in="SourceAlpha" type="matrix" values="0 0 0 0 0 0 0 0 0 0 0 0 0 0 0 0 0 0 127 0" result="hardAlpha"/>
<feOffset dx="2" dy="2"/>
<feComposite in2="hardAlpha" operator="out"/>
<feColorMatrix type="matrix" values="0 0 0 0 0 0 0 0 0 0 0 0 0 0 0 0 0 0 1 0"/>
<feBlend mode="normal" in2="BackgroundImageFix" result="effect1_dropShadow_2885_5692"/>
<feBlend mode="normal" in="SourceGraphic" in2="effect1_dropShadow_2885_5692" result="shape"/>
</filter>
<filter id="filter3_d_2885_5692" x="232" y="60" width="54" height="54" filterUnits="userSpaceOnUse" color-interpolation-filters="sRGB">
<feFlood flood-opacity="0" result="BackgroundImageFix"/>
<feColorMatrix in="SourceAlpha" type="matrix" values="0 0 0 0 0 0 0 0 0 0 0 0 0 0 0 0 0 0 127 0" result="hardAlpha"/>
<feOffset dx="2" dy="2"/>
<feComposite in2="hardAlpha" operator="out"/>
<feColorMatrix type="matrix" values="0 0 0 0 0 0 0 0 0 0 0 0 0 0 0 0 0 0 1 0"/>
<feBlend mode="normal" in2="BackgroundImageFix" result="effect1_dropShadow_2885_5692"/>
<feBlend mode="normal" in="SourceGraphic" in2="effect1_dropShadow_2885_5692" result="shape"/>
</filter>
<filter id="filter4_d_2885_5692" x="150" y="296" width="54" height="54" filterUnits="userSpaceOnUse" color-interpolation-filters="sRGB">
<feFlood flood-opacity="0" result="BackgroundImageFix"/>
<feColorMatrix in="SourceAlpha" type="matrix" values="0 0 0 0 0 0 0 0 0 0 0 0 0 0 0 0 0 0 127 0" result="hardAlpha"/>
<feOffset dx="2" dy="2"/>
<feComposite in2="hardAlpha" operator="out"/>
<feColorMatrix type="matrix" values="0 0 0 0 0 0 0 0 0 0 0 0 0 0 0 0 0 0 1 0"/>
<feBlend mode="normal" in2="BackgroundImageFix" result="effect1_dropShadow_2885_5692"/>
<feBlend mode="normal" in="SourceGraphic" in2="effect1_dropShadow_2885_5692" result="shape"/>
</filter>
</defs>
</svg>
