<svg width="127" height="51" viewBox="0 0 127 51" fill="none" xmlns="http://www.w3.org/2000/svg">
<g clip-path="url(#clip0_2563_2734)">
<line x1="8.60824" y1="46.182" x2="60.5665" y2="5.17982" stroke="white" stroke-width="0.583801"/>
<line x1="8.60824" y1="64.7479" x2="60.5665" y2="23.7457" stroke="white" stroke-width="0.583801"/>
<line x1="8.60824" y1="12.1441" x2="60.5665" y2="-28.858" stroke="white" stroke-width="0.583801"/>
<line x1="8.60824" y1="27.6158" x2="60.5665" y2="-13.3863" stroke="white" stroke-width="0.583801"/>
<line x1="8.60824" y1="74.031" x2="60.5665" y2="33.0288" stroke="white" stroke-width="0.583801"/>
<line x1="8.60824" y1="36.8988" x2="60.5665" y2="-4.10339" stroke="white" stroke-width="0.583801"/>
<line x1="8.60824" y1="55.4649" x2="60.5665" y2="14.4628" stroke="white" stroke-width="0.583801"/>
<line x1="8.60824" y1="18.3329" x2="60.5665" y2="-22.6693" stroke="white" stroke-width="0.583801"/>
<line x1="8.60824" y1="49.2762" x2="60.5665" y2="8.27405" stroke="white" stroke-width="0.583801"/>
<line x1="8.60824" y1="67.8424" x2="60.5665" y2="26.8402" stroke="white" stroke-width="0.583801"/>
<line x1="8.60824" y1="30.7101" x2="60.5665" y2="-10.2921" stroke="white" stroke-width="0.583801"/>
<line x1="8.60824" y1="77.1253" x2="60.5665" y2="36.1232" stroke="white" stroke-width="0.583801"/>
<line x1="8.60824" y1="39.9933" x2="60.5665" y2="-1.00891" stroke="white" stroke-width="0.583801"/>
<line x1="8.60824" y1="58.5592" x2="60.5665" y2="17.557" stroke="white" stroke-width="0.583801"/>
<line x1="8.60824" y1="21.4271" x2="60.5665" y2="-19.5751" stroke="white" stroke-width="0.583801"/>
<line x1="8.60824" y1="43.0875" x2="60.5665" y2="2.08533" stroke="white" stroke-width="0.583801"/>
<line x1="8.60824" y1="61.6537" x2="60.5665" y2="20.6515" stroke="white" stroke-width="0.583801"/>
<line x1="8.60824" y1="24.5213" x2="60.5665" y2="-16.4808" stroke="white" stroke-width="0.583801"/>
<line x1="8.60824" y1="70.9366" x2="60.5665" y2="29.9345" stroke="white" stroke-width="0.583801"/>
<line x1="8.60824" y1="33.8045" x2="60.5665" y2="-7.19763" stroke="white" stroke-width="0.583801"/>
<line x1="8.60824" y1="52.3707" x2="60.5665" y2="11.3685" stroke="white" stroke-width="0.583801"/>
<line x1="8.60824" y1="15.2384" x2="60.5665" y2="-25.7638" stroke="white" stroke-width="0.583801"/>
<rect x="9.9567" y="39.1466" width="99.2461" height="15.4707" transform="rotate(-90 9.9567 39.1466)" fill="white"/>
<rect x="9.9567" y="39.1466" width="99.2461" height="15.4707" transform="rotate(-90 9.9567 39.1466)" stroke="white" stroke-width="0.583801"/>
</g>
<path d="M58.3843 31.9559H44.8547V29.5127L51.5013 23.5754L54.2598 21.5V21.2898L51.5013 21.3949H45.2488V18.8992H57.9903V21.3424L50.8708 27.5949L48.4539 29.3813V29.5915L50.8708 29.4601H58.3843V31.9559Z" fill="white"/>
<path d="M65.7283 32.2186C62.0504 32.2186 60.2639 29.7754 60.2639 26.7542V18.8992H63.0749V25.9924C63.0749 28.4356 64.2046 29.6703 66.963 29.6703C69.8529 29.6703 71.1927 28.1991 71.1927 25.3619V18.8992H74.0037V31.9559H71.4029V27.9102H71.2452C70.8249 30.1169 69.091 32.2186 65.7283 32.2186Z" fill="white"/>
<path d="M79.4186 31.9559H76.5813V18.8992H79.1822V22.8398H79.3398C79.6813 20.6593 81.0999 18.6365 84.3576 18.6365C87.3262 18.6365 88.9287 20.4492 89.2965 22.9449H89.4541C89.7957 20.7119 91.2668 18.6365 94.577 18.6365C97.966 18.6365 99.6736 20.9483 99.6736 24.1009V31.9559H96.8626V24.8627C96.8626 22.2881 95.838 21.1848 93.316 21.1848C90.5312 21.1848 89.5329 22.6034 89.5329 25.4932V31.9559H86.7219V24.8627C86.7219 22.2881 85.7236 21.1848 83.2016 21.1848C80.3906 21.1848 79.4186 22.6034 79.4186 25.4932V31.9559Z" fill="white"/>
<path d="M106.047 32.2186C103.341 32.2186 101.633 30.9576 101.633 28.8034C101.633 26.7805 103.262 25.7297 105.836 25.4407L111.774 24.8102V24.0483C111.774 21.8941 110.828 21.1322 108.332 21.1322C105.915 21.1322 104.733 21.9204 104.733 23.8381V23.9432H101.922V23.8381C101.922 20.8695 104.391 18.6365 108.542 18.6365C112.693 18.6365 114.558 20.8958 114.558 24.022V31.9559H111.958V28.6983H111.774C111.091 30.9051 109.015 32.2186 106.047 32.2186ZM104.47 28.6195C104.47 29.6703 105.18 30.1695 106.808 30.1695C109.777 30.1695 111.774 29.0661 111.774 26.4915L106.651 27.0695C105.18 27.2534 104.47 27.5949 104.47 28.6195Z" fill="white"/>
<defs>
<clipPath id="clip0_2563_2734">
<rect x="12" y="38.8547" width="26.8548" height="26.8548" rx="13.4274" transform="rotate(-90 12 38.8547)" fill="white"/>
</clipPath>
</defs>
</svg>
