<svg width="125" height="40" viewBox="0 0 125 40" fill="none" xmlns="http://www.w3.org/2000/svg">
<g clip-path="url(#clip0_2991_7127)">
<line x1="-3.97871" y1="44.3452" x2="56.9682" y2="-3.75021" stroke="white" stroke-width="0.684797"/>
<line x1="-3.97871" y1="66.1233" x2="56.9682" y2="18.0279" stroke="white" stroke-width="0.684797"/>
<line x1="-3.97871" y1="4.4192" x2="56.9682" y2="-43.6762" stroke="white" stroke-width="0.684797"/>
<line x1="-3.97871" y1="22.5672" x2="56.9682" y2="-25.5283" stroke="white" stroke-width="0.684797"/>
<line x1="-3.97871" y1="77.012" x2="56.9682" y2="28.9165" stroke="white" stroke-width="0.684797"/>
<line x1="-3.97871" y1="33.4561" x2="56.9682" y2="-14.6394" stroke="white" stroke-width="0.684797"/>
<line x1="-3.97871" y1="55.2341" x2="56.9682" y2="7.1387" stroke="white" stroke-width="0.684797"/>
<line x1="-3.97871" y1="11.6782" x2="56.9682" y2="-36.4172" stroke="white" stroke-width="0.684797"/>
<line x1="-3.97871" y1="47.9749" x2="56.9682" y2="-0.120573" stroke="white" stroke-width="0.684797"/>
<line x1="-3.97871" y1="69.7527" x2="56.9682" y2="21.6573" stroke="white" stroke-width="0.684797"/>
<line x1="-3.97871" y1="26.197" x2="56.9682" y2="-21.8984" stroke="white" stroke-width="0.684797"/>
<line x1="-3.97871" y1="80.6419" x2="56.9682" y2="32.5464" stroke="white" stroke-width="0.684797"/>
<line x1="-3.97871" y1="37.0859" x2="56.9682" y2="-11.0095" stroke="white" stroke-width="0.684797"/>
<line x1="-3.97871" y1="58.8638" x2="56.9682" y2="10.7683" stroke="white" stroke-width="0.684797"/>
<line x1="-3.97871" y1="15.3079" x2="56.9682" y2="-32.7876" stroke="white" stroke-width="0.684797"/>
<line x1="-3.97871" y1="40.7156" x2="56.9682" y2="-7.37985" stroke="white" stroke-width="0.684797"/>
<line x1="-3.97871" y1="62.4937" x2="56.9682" y2="14.3982" stroke="white" stroke-width="0.684797"/>
<line x1="-3.97871" y1="18.9378" x2="56.9682" y2="-29.1577" stroke="white" stroke-width="0.684797"/>
<line x1="-3.97871" y1="73.3826" x2="56.9682" y2="25.2871" stroke="white" stroke-width="0.684797"/>
<line x1="-3.97871" y1="29.8264" x2="56.9682" y2="-18.269" stroke="white" stroke-width="0.684797"/>
<line x1="-3.97871" y1="51.6045" x2="56.9682" y2="3.50907" stroke="white" stroke-width="0.684797"/>
<line x1="-3.97871" y1="8.0486" x2="56.9682" y2="-40.0468" stroke="white" stroke-width="0.684797"/>
<rect x="-2.39686" y="36.0927" width="116.415" height="18.1471" transform="rotate(-90 -2.39686 36.0927)" fill="white"/>
<rect x="-2.39686" y="36.0927" width="116.415" height="18.1471" transform="rotate(-90 -2.39686 36.0927)" stroke="white" stroke-width="0.684797"/>
</g>
<path d="M56.6978 30H40.3038V26.0556L46.9292 20.7861L50.1648 18.7522V18.4441L46.9292 18.6289H40.766V14.5613H56.2356V18.5365L49.0863 24.0525L46.1588 25.8707V26.1788L49.0863 25.9631H56.6978V30ZM64.5963 30.3082C60.2513 30.3082 58.1866 27.6272 58.1866 24.1758V14.5613H62.809V22.635C62.809 25.1311 63.8567 26.1788 66.7842 26.1788C69.8042 26.1788 70.8827 25.0078 70.8827 22.3885V14.5613H75.5051V30H71.1909V25.2852H70.9444C70.5437 27.8737 68.664 30.3082 64.5963 30.3082ZM82.1828 30H77.5604V14.5613H81.8438V19.2453H82.0903C82.4601 16.6567 84.0009 14.2531 87.8837 14.2531C91.4583 14.2531 93.2765 16.441 93.6154 19.3069H93.8928C94.2626 16.6875 95.8342 14.2531 99.8094 14.2531C103.785 14.2531 105.726 16.8724 105.726 20.3855V30H101.104V21.9262C101.104 19.3685 100.21 18.4132 97.5599 18.4132C94.7556 18.4132 93.9544 19.5226 93.9544 22.2036V30H89.332V21.9262C89.332 19.3685 88.4384 18.4132 85.7882 18.4132C82.984 18.4132 82.1828 19.5226 82.1828 22.2036V30ZM112.513 30.3082C109.185 30.3082 107.182 28.7674 107.182 26.1788C107.182 23.8985 108.877 22.4809 112.174 22.142L118.799 21.464V20.8785C118.799 18.8755 117.906 18.3208 115.44 18.3208C113.098 18.3208 112.143 18.9371 112.143 20.6936V20.8169H107.49V20.7244C107.49 16.9033 110.695 14.2531 115.779 14.2531C120.926 14.2531 123.36 16.9033 123.36 20.9401V30H119.046V26.4562H118.799C118.09 28.8598 115.933 30.3082 112.513 30.3082ZM111.835 25.8707C111.835 26.7027 112.482 27.0417 113.838 27.0417C116.981 27.0417 118.676 26.3021 118.799 24.1142L113.437 24.7305C112.328 24.8229 111.835 25.1311 111.835 25.8707Z" fill="white"/>
<defs>
<clipPath id="clip0_2991_7127">
<rect y="35.7502" width="31.5007" height="31.5007" rx="15.7503" transform="rotate(-90 0 35.7502)" fill="white"/>
</clipPath>
</defs>
</svg>
