<svg width="125" height="41" viewBox="0 0 125 41" fill="none" xmlns="http://www.w3.org/2000/svg">
<g clip-path="url(#clip0_2785_52)">
<line x1="-3.97871" y1="45.2378" x2="56.9682" y2="-2.85763" stroke="black" stroke-width="0.684797"/>
<line x1="-3.97871" y1="67.0159" x2="56.9682" y2="18.9204" stroke="black" stroke-width="0.684797"/>
<line x1="-3.97871" y1="5.31178" x2="56.9682" y2="-42.7837" stroke="black" stroke-width="0.684797"/>
<line x1="-3.97871" y1="23.4597" x2="56.9682" y2="-24.6357" stroke="black" stroke-width="0.684797"/>
<line x1="-3.97871" y1="77.9046" x2="56.9682" y2="29.8091" stroke="black" stroke-width="0.684797"/>
<line x1="-3.97871" y1="34.3486" x2="56.9682" y2="-13.7468" stroke="black" stroke-width="0.684797"/>
<line x1="-3.97871" y1="56.1267" x2="56.9682" y2="8.03128" stroke="black" stroke-width="0.684797"/>
<line x1="-3.97871" y1="12.5708" x2="56.9682" y2="-35.5246" stroke="black" stroke-width="0.684797"/>
<line x1="-3.97871" y1="48.8674" x2="56.9682" y2="0.772006" stroke="black" stroke-width="0.684797"/>
<line x1="-3.97871" y1="70.6453" x2="56.9682" y2="22.5498" stroke="black" stroke-width="0.684797"/>
<line x1="-3.97871" y1="27.0896" x2="56.9682" y2="-21.0058" stroke="black" stroke-width="0.684797"/>
<line x1="-3.97871" y1="81.5344" x2="56.9682" y2="33.439" stroke="black" stroke-width="0.684797"/>
<line x1="-3.97871" y1="37.9785" x2="56.9682" y2="-10.1169" stroke="black" stroke-width="0.684797"/>
<line x1="-3.97871" y1="59.7564" x2="56.9682" y2="11.6609" stroke="black" stroke-width="0.684797"/>
<line x1="-3.97871" y1="16.2005" x2="56.9682" y2="-31.895" stroke="black" stroke-width="0.684797"/>
<line x1="-3.97871" y1="41.6082" x2="56.9682" y2="-6.48727" stroke="black" stroke-width="0.684797"/>
<line x1="-3.97871" y1="63.3862" x2="56.9682" y2="15.2908" stroke="black" stroke-width="0.684797"/>
<line x1="-3.97871" y1="19.8303" x2="56.9682" y2="-28.2651" stroke="black" stroke-width="0.684797"/>
<line x1="-3.97871" y1="74.2752" x2="56.9682" y2="26.1797" stroke="black" stroke-width="0.684797"/>
<line x1="-3.97871" y1="30.719" x2="56.9682" y2="-17.3764" stroke="black" stroke-width="0.684797"/>
<line x1="-3.97871" y1="52.4971" x2="56.9682" y2="4.40164" stroke="black" stroke-width="0.684797"/>
<line x1="-3.97871" y1="8.94117" x2="56.9682" y2="-39.1543" stroke="black" stroke-width="0.684797"/>
<rect x="-2.39686" y="36.9852" width="116.415" height="18.1471" transform="rotate(-90 -2.39686 36.9852)" fill="black"/>
<rect x="-2.39686" y="36.9852" width="116.415" height="18.1471" transform="rotate(-90 -2.39686 36.9852)" stroke="black" stroke-width="0.684797"/>
</g>
<path d="M56.6978 30.8926H40.3038V26.9481L46.9292 21.6786L50.1648 19.6448V19.3366L46.9292 19.5215H40.766V15.4538H56.2356V19.4291L49.0863 24.9451L46.1588 26.7633V27.0714L49.0863 26.8557H56.6978V30.8926ZM64.5963 31.2007C60.2513 31.2007 58.1866 28.5198 58.1866 25.0684V15.4538H62.809V23.5276C62.809 26.0237 63.8567 27.0714 66.7842 27.0714C69.8042 27.0714 70.8827 25.9004 70.8827 23.2811V15.4538H75.5051V30.8926H71.1909V26.1778H70.9444C70.5437 28.7663 68.664 31.2007 64.5963 31.2007ZM82.1828 30.8926H77.5604V15.4538H81.8438V20.1378H82.0903C82.4601 17.5493 84.0009 15.1457 87.8837 15.1457C91.4583 15.1457 93.2765 17.3336 93.6154 20.1995H93.8928C94.2626 17.5801 95.8342 15.1457 99.8094 15.1457C103.785 15.1457 105.726 17.765 105.726 21.278V30.8926H101.104V22.8188C101.104 20.2611 100.21 19.3058 97.5599 19.3058C94.7556 19.3058 93.9544 20.4152 93.9544 23.0962V30.8926H89.332V22.8188C89.332 20.2611 88.4384 19.3058 85.7882 19.3058C82.984 19.3058 82.1828 20.4152 82.1828 23.0962V30.8926ZM112.513 31.2007C109.185 31.2007 107.182 29.6599 107.182 27.0714C107.182 24.791 108.877 23.3735 112.174 23.0345L118.799 22.3566V21.7711C118.799 19.7681 117.906 19.2134 115.44 19.2134C113.098 19.2134 112.143 19.8297 112.143 21.5862V21.7095H107.49V21.617C107.49 17.7958 110.695 15.1457 115.779 15.1457C120.926 15.1457 123.36 17.7958 123.36 21.8327V30.8926H119.046V27.3488H118.799C118.09 29.7524 115.933 31.2007 112.513 31.2007ZM111.835 26.7633C111.835 27.5953 112.482 27.9343 113.838 27.9343C116.981 27.9343 118.676 27.1947 118.799 25.0067L113.437 25.6231C112.328 25.7155 111.835 26.0237 111.835 26.7633Z" fill="black"/>
<defs>
<clipPath id="clip0_2785_52">
<rect y="36.6428" width="31.5007" height="31.5007" rx="15.7503" transform="rotate(-90 0 36.6428)" fill="white"/>
</clipPath>
</defs>
</svg>
