<svg width="72" height="83" viewBox="0 0 72 83" fill="none" xmlns="http://www.w3.org/2000/svg">
<path d="M62.8683 58.8754C61.8988 61.1114 60.7511 63.1696 59.4216 65.0619C57.6092 67.6416 56.1252 69.4272 54.9816 70.4188C53.2087 72.0464 51.3092 72.88 49.2753 72.9273C47.8151 72.9273 46.0541 72.5125 44.0043 71.6711C41.9477 70.8336 40.0577 70.4188 38.3296 70.4188C36.5172 70.4188 34.5734 70.8336 32.4943 71.6711C30.4121 72.5126 28.7346 72.9511 27.452 72.9945C25.5016 73.0775 23.5574 72.2202 21.6168 70.4188C20.3782 69.3403 18.8289 67.4914 16.973 64.8723C14.9817 62.0753 13.3447 58.832 12.0621 55.1343C10.6886 51.1404 10 47.2728 10 43.5286C10 39.2395 10.9284 35.5403 12.7879 32.4403C14.2493 29.9503 16.1934 27.9861 18.6267 26.5442C21.06 25.1023 23.6892 24.3675 26.5205 24.3205C28.0698 24.3205 30.1014 24.7989 32.6261 25.7391C35.1437 26.6825 36.7602 27.1609 37.4689 27.1609C37.9988 27.1609 39.7946 26.6015 42.8389 25.4863C45.7178 24.4521 48.1474 24.0237 50.1379 24.1925C55.5316 24.627 59.5838 26.7496 62.2786 30.5737C57.4548 33.4916 55.0686 37.5783 55.1161 42.821C55.1596 46.9047 56.6436 50.3029 59.56 53.0011C60.8817 54.2534 62.3578 55.2213 64 55.9087C63.6439 56.9397 63.2679 57.9273 62.8683 58.8754ZM50.4981 10.2804C50.4981 13.4811 49.3267 16.4696 46.9919 19.2358C44.1744 22.5242 40.7665 24.4243 37.0708 24.1245C37.0214 23.7221 36.9965 23.3171 36.9964 22.9117C36.9964 19.839 38.3363 16.5506 40.7158 13.8619C41.9038 12.5005 43.4147 11.3686 45.2468 10.4657C47.0751 9.57617 48.8043 9.08426 50.4308 9C50.4783 9.42787 50.4981 9.85585 50.4981 10.2804Z" fill="white"/>
</svg>
