<svg width="133" height="84" viewBox="0 0 133 84" fill="none" xmlns="http://www.w3.org/2000/svg">
<path d="M8.1377 8.55646V37.9855H23.5245C29.5807 37.9855 35.1773 35.8569 35.1773 29.6045C35.1773 25.3777 32.1365 23.4481 28.7921 22.4382C30.8298 21.6196 33.1413 19.9001 33.1413 16.2955C33.1413 11.6819 28.5702 8.55646 22.4156 8.55646H8.1377ZM17.5639 15.4105H21.0294C22.4402 15.4105 23.5159 16.5171 23.5159 17.6403C23.5159 18.6837 22.3981 19.8006 21.0293 19.8006H17.564L17.5639 15.4105ZM17.5639 25.9085H22.1383C23.7353 25.9085 25.0754 27.1231 25.0754 28.5114C25.0754 29.9855 23.8221 31.2096 21.8611 31.2096H17.5639V25.9085ZM15.7617 41.1956V70.6245H31.1487C37.2048 70.6245 42.8013 68.496 42.8013 62.2436C42.8013 58.0167 39.7607 56.0872 36.4162 55.0772C38.4539 54.2586 40.7655 52.5392 40.7655 48.9346C40.7655 44.321 36.1942 41.1956 30.0396 41.1956H15.7617ZM25.188 48.0495H28.6535C30.0642 48.0495 31.14 49.1562 31.14 50.2793C31.14 51.3229 30.0222 52.4396 28.6534 52.4396H25.188V48.0495ZM25.188 58.5476H29.7624C31.3593 58.5476 32.6994 59.7621 32.6994 61.1504C32.6994 62.6246 31.4462 63.8486 29.4852 63.8486H25.188V58.5476ZM35.9172 37.982V8.55284H59.6213V15.6602H45.3157V19.5193H56.932V26.1826H45.3157V30.9022H59.6213V37.9819L35.9172 37.982ZM72.462 38.8243C79.1342 38.8243 84.4711 35.0131 84.4711 28.8368C84.4711 18.8692 71.5224 20.403 71.5224 17.2995C71.5224 16.1008 72.7814 15.4646 74.0725 15.4646C76.2975 15.4646 77.9051 16.9326 77.9051 16.9326L83.4759 11.6206C81.2479 9.49722 77.7289 7.71191 72.9883 7.71191C65.8689 7.71191 61.2113 11.9434 61.2113 17.0478C61.2113 27.1422 73.9734 25.6772 73.9734 28.8445C73.9734 29.9548 72.9066 31.0717 70.972 31.0717C68.7756 31.0717 67.0356 29.7438 65.6814 28.6173L60.078 33.967C62.3343 36.1679 65.9566 38.8243 72.462 38.8243ZM91.7257 37.982V15.6325H83.963V8.55284H108.915V15.6325H101.152V37.9818L91.7257 37.982ZM43.1255 41.1747H52.5239V58.8044C52.5239 60.5946 54.3031 62.2443 56.1581 62.2443C57.9079 62.2443 59.6766 60.7545 59.6766 58.7103V41.1746H69.0475V58.5903C69.0475 65.5008 63.318 71.0132 55.9098 71.0132C48.4593 71.0132 43.1255 65.014 43.1255 58.2137V41.1747ZM80.636 70.6037V60.0879L69.5896 41.1747H79.0987L85.3491 51.3083L91.6212 41.1747H101.152L90.0623 60.196V70.6037H80.636Z" fill="white"/>
<path d="M124.606 57.2803V75.8818H101.152L95.6074 70.3291V62.833L101.152 57.2803H124.606ZM98.9941 65.3291C98.3055 65.3293 97.7472 65.8884 97.7471 66.5781C97.7471 67.268 98.3054 67.8279 98.9941 67.8281C99.6832 67.8281 100.242 67.2681 100.242 66.5781C100.242 65.8882 99.6831 65.3291 98.9941 65.3291Z" fill="#6C6C6C"/>
</svg>
