<svg width="198" height="50" viewBox="0 0 198 50" fill="none" xmlns="http://www.w3.org/2000/svg">
<mask id="mask0_2885_4736" style="mask-type:luminance" maskUnits="userSpaceOnUse" x="10" y="10" width="179" height="31">
<path d="M10.4795 10.69H188.136V40.4727H10.4795V10.69Z" fill="white"/>
</mask>
<g mask="url(#mask0_2885_4736)">
<mask id="mask1_2885_4736" style="mask-type:luminance" maskUnits="userSpaceOnUse" x="10" y="10" width="179" height="31">
<path d="M10.48 40.4727H188.137V10.69H10.48V40.4727Z" fill="white"/>
</mask>
<g mask="url(#mask1_2885_4736)">
<path d="M80.1484 13.9495C80.1484 12.4711 81.3562 11.2755 82.8429 11.2755C84.3346 11.2755 85.547 12.4711 85.547 13.9495C85.547 15.4261 84.3346 16.623 82.8429 16.623C81.3562 16.623 80.1484 15.4259 80.1484 13.9495Z" fill="#6C6C6C"/>
<path d="M122.742 31.7366C122.742 30.2577 123.949 29.0606 125.436 29.0606C126.927 29.0606 128.139 30.2577 128.139 31.7366C128.139 33.2117 126.927 34.4102 125.436 34.4102C123.949 34.4102 122.742 33.2119 122.742 31.7366Z" fill="white"/>
<path d="M35.8439 30.5806C33.5189 30.5806 31.9032 28.7564 31.9032 26.1495C31.9032 23.5431 33.5189 21.7201 35.8439 21.7201C38.1822 21.7201 39.8156 23.5431 39.8156 26.1495C39.8156 28.7976 38.2162 30.5806 35.8439 30.5806ZM35.8439 17.8256C30.9251 17.8256 27.3555 21.3272 27.3555 26.1495C27.3555 30.9718 30.9251 34.4727 35.8439 34.4727C40.781 34.4727 44.3656 30.9718 44.3656 26.1495C44.3656 21.3272 40.781 17.8256 35.8439 17.8256ZM74.9206 26.5657C74.7294 26.2102 74.5102 25.9093 74.2767 25.6704L74.128 25.5144L74.2845 25.3662C74.5103 25.1311 74.7411 24.8522 74.9636 24.5291L79.3043 18.1538H74.0349L70.7735 23.1408C70.5889 23.4083 70.2162 23.5431 69.6582 23.5431H68.9149V14.1148C68.9149 12.2289 67.7258 11.9722 66.4413 11.9722H64.2421L64.2458 34.2275H68.9149V27.5518H69.3523C69.8845 27.5518 70.2471 27.6126 70.4132 27.8984L72.9889 32.7018C73.7084 34.0051 74.4254 34.2275 75.7743 34.2275H79.3525L76.6876 29.8723L74.9206 26.5657ZM97.5875 17.7899C95.2125 17.7899 93.6972 18.8323 92.848 19.7138L92.5644 19.9971L92.4644 19.6119C92.2149 18.6675 91.3741 18.148 90.1087 18.148H88.0161L88.0292 34.2219H92.6666V26.8135C92.6666 26.0891 92.7619 25.4606 92.9557 24.8872C93.472 23.1516 94.9118 22.0724 96.7115 22.0724C98.1591 22.0724 98.7247 22.8271 98.7247 24.7776V31.7783C98.7247 33.4431 99.5039 34.2219 101.19 34.2219H103.397L103.389 23.9986C103.389 19.9369 101.383 17.7899 97.5875 17.7899ZM82.905 18.1551H80.7069L80.722 30.5832L80.7205 34.2256H83.0666C83.0961 34.2256 83.1198 34.2288 83.1494 34.2288L84.2422 34.2256H85.33V34.2193H85.3375L85.3469 20.5952C85.3469 18.9514 84.5499 18.1551 82.905 18.1551ZM54.059 30.5806C51.7343 30.5806 50.1154 28.7564 50.1154 26.1495C50.1154 23.5431 51.7343 21.7201 54.059 21.7201C56.3924 21.7201 58.0304 23.5431 58.0304 26.1495C58.0304 28.7976 56.4315 30.5806 54.059 30.5806ZM54.059 17.8256C49.1354 17.8256 45.565 21.3272 45.565 26.1495C45.565 30.9718 49.1354 34.4727 54.059 34.4727C58.9911 34.4727 62.5815 30.9718 62.5815 26.1495C62.5815 21.3272 58.9911 17.8256 54.059 17.8256Z" fill="#6C6C6C"/>
</g>
</g>
<mask id="mask2_2885_4736" style="mask-type:luminance" maskUnits="userSpaceOnUse" x="10" y="10" width="179" height="31">
<path d="M10.4795 10.69H188.136V40.4727H10.4795V10.69Z" fill="white"/>
</mask>
<g mask="url(#mask2_2885_4736)">
<mask id="mask3_2885_4736" style="mask-type:luminance" maskUnits="userSpaceOnUse" x="10" y="11" width="179" height="30">
<path d="M10.4795 11.2762H188.099V40.4346H10.4795V11.2762Z" fill="white"/>
</mask>
<g mask="url(#mask3_2885_4736)">
<mask id="mask4_2885_4736" style="mask-type:luminance" maskUnits="userSpaceOnUse" x="10" y="10" width="179" height="31">
<path d="M10.4795 40.4727H188.136V10.69H10.4795V40.4727Z" fill="white"/>
</mask>
<g mask="url(#mask4_2885_4736)">
<path d="M153.461 30.5806C151.137 30.5806 149.517 28.7564 149.517 26.1495C149.517 23.5431 151.137 21.7201 153.461 21.7201C155.795 21.7201 157.433 23.5431 157.433 26.1495C157.433 28.7976 155.834 30.5806 153.461 30.5806ZM153.461 17.8256C148.538 17.8256 144.968 21.3272 144.968 26.1495C144.968 30.9718 148.538 34.4727 153.461 34.4727C158.393 34.4727 161.983 30.9718 161.983 26.1495C161.983 21.3272 158.393 17.8256 153.461 17.8256Z" fill="white"/>
<path d="M113.167 29.8733C110.632 29.8733 109.73 27.6879 109.73 25.6399C109.73 24.7375 109.961 21.7966 112.924 21.7966C114.396 21.7966 116.359 22.2136 116.359 25.7912C116.359 29.1656 114.622 29.8733 113.167 29.8733ZM118.766 18.1117C117.886 18.1117 117.209 18.4585 116.87 19.0915L116.742 19.3372L116.527 19.1529C115.778 18.5129 114.436 17.7537 112.257 17.7537C107.92 17.7537 105.001 20.9716 105.001 25.7602C105.001 30.5431 108.022 33.8858 112.344 33.8858C113.82 33.8858 114.987 33.5455 115.912 32.8536L116.27 32.588V33.0349C116.27 35.1817 114.864 36.366 112.317 36.366C111.079 36.366 109.952 36.0683 109.199 35.7982C108.215 35.5049 107.638 35.7477 107.239 36.7228L106.871 37.6226L106.35 38.9369L106.673 39.1067C108.303 39.9614 110.426 40.4717 112.344 40.4717C116.293 40.4717 120.905 38.4744 120.905 32.8536L120.922 18.1117H118.766Z" fill="#6C6C6C"/>
</g>
</g>
</g>
<mask id="mask5_2885_4736" style="mask-type:luminance" maskUnits="userSpaceOnUse" x="10" y="10" width="179" height="31">
<path d="M10.4795 10.69H188.136V40.4727H10.4795V10.69Z" fill="white"/>
</mask>
<g mask="url(#mask5_2885_4736)">
<mask id="mask6_2885_4736" style="mask-type:luminance" maskUnits="userSpaceOnUse" x="10" y="10" width="179" height="31">
<path d="M10.48 40.4727H188.137V10.69H10.48V40.4727Z" fill="white"/>
</mask>
<g mask="url(#mask6_2885_4736)">
<path d="M18.5727 30.3962L14.7978 30.3925V25.9333C14.7978 24.9803 15.1717 24.4847 15.9983 24.3707H18.5727C20.4102 24.3707 21.5974 25.5158 21.5988 27.368C21.5974 29.2689 20.4397 30.3951 18.5727 30.3962ZM14.7978 18.367V17.1935C14.7978 16.1664 15.2377 15.6779 16.203 15.6151H18.1346C19.7913 15.6151 20.7835 16.5947 20.7835 18.2333C20.7835 19.483 20.1043 20.9411 18.1956 20.9411H14.7978V18.367ZM23.3939 22.8175L22.7114 22.4385L23.3072 21.9352C23.9999 21.3466 25.1614 20.0235 25.1614 17.7374C25.1614 14.2393 22.4152 11.9816 18.1648 11.9816H13.3142L12.762 11.9803C11.5018 12.0259 10.4936 13.0384 10.4795 14.2913V34.1463H12.7055C12.7112 34.1475 12.7131 34.1463 12.7149 34.1475L18.2606 34.1463C22.9855 34.1463 26.0352 31.6054 26.0352 27.6695C26.0352 25.5505 25.0505 23.7388 23.3939 22.8175Z" fill="#6C6C6C"/>
<path d="M182.698 17.8421C180.774 17.8421 178.914 18.7323 177.72 20.2253L177.384 20.6461L177.12 20.1754C176.262 18.628 174.783 17.8421 172.728 17.8421C170.572 17.8421 169.126 19.0303 168.455 19.7367L168.015 20.207L167.846 19.5884C167.601 18.6982 166.799 18.2078 165.584 18.2078H163.634L163.616 34.2195H168.044V27.1514C168.044 26.5323 168.122 25.9195 168.279 25.2791C168.702 23.5711 169.864 21.7341 171.817 21.9178C173.021 22.0319 173.609 22.9515 173.609 24.7276V34.2195H178.069V27.1514C178.069 26.3777 178.142 25.7986 178.319 25.2174C178.678 23.5869 179.891 21.9154 181.775 21.9154C183.139 21.9154 183.643 22.6783 183.643 24.7276V31.8787C183.643 33.4965 184.373 34.2195 186.009 34.2195H188.094L188.098 23.9976C188.098 19.9142 186.279 17.8421 182.698 17.8421ZM142.403 28.6602C142.39 28.6759 140.484 30.6614 137.975 30.6614C135.69 30.6614 133.38 29.2755 133.38 26.182C133.38 23.511 135.171 21.6442 137.734 21.6442C138.566 21.6442 139.513 21.9388 139.661 22.4344L139.683 22.518C140.024 23.6415 141.057 23.7017 141.261 23.7017L143.687 23.7043V21.6088C143.687 18.8447 140.128 17.8423 137.734 17.8423C132.613 17.8423 128.897 21.3647 128.897 26.2156C128.897 31.0644 132.573 34.582 137.64 34.582C142.037 34.582 144.427 31.7266 144.45 31.6982L144.578 31.5435L142.656 28.3942L142.403 28.6602Z" fill="white"/>
</g>
</g>
</svg>
