<svg width="174" height="63" viewBox="0 0 174 63" fill="none" xmlns="http://www.w3.org/2000/svg">
<mask id="mask0_2885_4799" style="mask-type:luminance" maskUnits="userSpaceOnUse" x="7" y="7" width="161" height="47">
<path d="M7 53.0449H168V7.52217H7V53.0449Z" fill="white"/>
</mask>
<g mask="url(#mask0_2885_4799)">
<path d="M84.5154 43.1439H79.5222C79.4998 43.1439 79.4864 43.1394 79.473 43.1238L75.1707 37.869L70.8639 43.1238C70.855 43.1394 70.8393 43.1439 70.817 43.1439H66.8188C66.7942 43.1439 66.7763 43.1327 66.7584 43.1059C66.7517 43.0902 66.7517 43.0612 66.7674 43.0433L73.1045 35.2594L66.8411 27.5493C66.8335 27.5387 66.8286 27.5266 66.8267 27.5138C66.8247 27.5009 66.8259 27.4878 66.83 27.4755C66.8412 27.4621 66.8658 27.4397 66.8859 27.4397H71.8813C71.897 27.4397 71.9149 27.4486 71.9283 27.471L75.7029 32.149L79.5445 27.4688C79.5557 27.4487 79.5735 27.4397 79.5914 27.4397H83.6634C83.688 27.4397 83.7126 27.4621 83.7216 27.4755C83.7267 27.4875 83.7287 27.5006 83.7271 27.5136C83.7255 27.5265 83.7205 27.5389 83.7126 27.5493L77.7668 34.6892L84.5578 43.0433C84.5757 43.0612 84.5825 43.0902 84.569 43.1059C84.565 43.1169 84.5577 43.1265 84.5481 43.1333C84.5385 43.14 84.5271 43.1437 84.5154 43.1439ZM111.541 30.2085C109.329 30.2085 107.82 31.5501 107.388 33.8824H114.911V33.7326C114.911 31.8654 113.535 30.2085 111.541 30.2085ZM118.79 36.2751C118.784 36.2839 118.776 36.2911 118.767 36.2962C118.758 36.3012 118.747 36.304 118.737 36.3041H107.308C107.545 38.9651 109.273 40.4811 112.071 40.4811C113.793 40.4811 115.622 39.8931 118.207 38.5179C118.254 38.491 118.301 38.5312 118.301 38.5804L118.296 42.0957C118.292 42.1247 118.278 42.1426 118.258 42.1493C115.854 43.1623 113.439 43.8532 111.541 43.8532C106.619 43.8532 103.053 40.2665 103.053 35.3269C103.053 30.3874 106.619 26.8007 111.541 26.8007C116.031 26.8007 118.915 29.8261 118.915 33.9875C118.915 34.6606 118.799 36.2259 118.79 36.2751ZM142.007 24.1978C140.605 24.1978 139.464 23.0753 139.464 21.6934C139.464 20.2712 140.605 19.1196 142.007 19.1196C143.409 19.1196 144.552 20.2712 144.552 21.6934C144.552 23.0753 143.409 24.1978 142.007 24.1978ZM139.954 43.1444C139.914 43.1444 139.889 43.1198 139.889 43.0795V27.505C139.889 27.4737 139.912 27.4491 139.939 27.4424H144.066C144.081 27.4446 144.095 27.4523 144.104 27.4638C144.114 27.4754 144.119 27.4901 144.118 27.505V43.0795C144.118 43.1198 144.091 43.1444 144.057 43.1444H139.954ZM92.0649 40.7987C91.3203 40.7987 90.5578 40.6936 89.6812 40.4588L89.6902 30.4678C90.7165 30.1414 91.6088 29.9871 92.4921 29.9871C95.3543 29.9871 97.275 32.098 97.275 35.233C97.275 38.614 95.229 40.7987 92.0649 40.7987ZM93.1874 26.8028C92.0224 26.8028 90.8462 27.0153 89.6119 27.4401H85.5042C85.4707 27.4401 85.4461 27.4693 85.4461 27.505V53.0459C86.6871 52.876 88.2076 52.4332 89.6835 51.3822L89.6812 43.6139C90.6942 43.7571 91.5305 43.8532 92.3378 43.8532C97.9638 43.8532 101.604 40.4812 101.604 35.2598C101.604 30.2823 98.1404 26.8028 93.1874 26.8028ZM132.438 39.5053C131.152 40.1806 130.003 40.5004 128.923 40.5004C126.376 40.5004 124.848 38.7004 124.848 35.6861C124.848 32.1977 126.798 29.9415 129.812 29.9415C130.644 29.9415 131.454 30.1449 132.438 30.5899V39.5053ZM132.438 19.1948V27.3476C131.232 27.0033 130.17 26.8445 129.099 26.8445C124.204 26.8445 120.508 30.5341 120.508 35.4356C120.508 40.3148 123.768 43.8523 128.254 43.8523C129.808 43.8523 131.261 43.4632 132.972 42.5822L132.97 43.9887C134.099 43.7741 135.396 43.3224 136.675 42.4167V17.5266C135.418 17.6943 133.929 18.1147 132.438 19.1948ZM158.419 39.4745C157.176 40.1923 156.109 40.5366 155.157 40.5366C152.429 40.5366 150.794 38.7433 150.794 35.7178C150.794 32.2809 152.719 29.9755 155.582 29.9755C156.349 29.9755 157.279 30.2684 158.419 30.8722V39.4745ZM162.661 27.2519C162.661 27.1557 162.578 27.0797 162.485 27.0797L159.148 27.0842C159.101 27.085 159.056 27.104 159.022 27.1373C158.988 27.1706 158.969 27.2157 158.967 27.2631V27.831H158.882C157.342 27.1557 156.029 26.8449 154.734 26.8449C150.119 26.8449 146.501 30.6709 146.501 35.5747C146.501 40.5322 149.739 43.855 154.558 43.855C155.848 43.855 157.5 43.7656 159.048 41.9857V43.9892C160.141 43.7566 161.431 43.2915 162.657 42.4104L162.661 27.2519ZM55.398 39.2468L65.7602 39.2424C65.5758 40.6328 65.0813 41.964 64.3134 43.1377H53.5332C52.2139 43.1377 51.1294 42.1158 50.9997 40.8233C50.9929 40.8032 50.9862 40.7853 50.984 40.7674V20.3316C50.9862 20.3159 50.9929 20.2935 50.9997 20.2801C51.1294 18.9854 52.2139 17.9591 53.5332 17.9591C53.5756 17.9591 53.6159 17.9635 53.6517 17.9635L65.7379 17.9613C65.5791 19.1174 65.1878 20.5083 64.2911 21.8857H55.398V27.4491H64.2016C64.2374 27.4491 64.2643 27.4737 64.2643 27.5095V31.369C64.2643 31.4003 64.2374 31.4294 64.2016 31.4294H55.398V39.2424V39.2468ZM42.4269 43.4621C41.4027 43.4621 40.7699 42.6616 40.7699 41.6822C40.7699 40.6334 41.4944 39.9023 42.4269 39.9023C43.3504 39.9023 44.0726 40.6334 44.0726 41.6822C44.0726 42.7332 43.3504 43.4621 42.4269 43.4621ZM42.4269 39.701C41.3781 39.701 40.4814 40.4903 40.4814 41.6822C40.4814 42.8092 41.2909 43.6567 42.4269 43.6567C43.4622 43.6567 44.3633 42.8718 44.3633 41.6822C44.3633 40.4903 43.4622 39.701 42.4269 39.701Z" fill="white"/>
<path d="M41.9623 41.5191V40.7969H42.4498C42.6958 40.7969 42.9864 40.8349 42.9864 41.1345C42.9864 41.4901 42.7181 41.5191 42.4118 41.5191H41.9623ZM43.3465 41.1815C43.3465 40.7096 43.0557 40.5084 42.4922 40.5084H41.6045V42.8496H41.9913V41.8478H42.3491L42.9551 42.8496H43.3912L42.7337 41.821C43.0893 41.7785 43.3465 41.6063 43.3465 41.1815ZM166.069 30.0324C165.045 30.0324 164.407 29.2319 164.407 28.2525C164.407 27.2038 165.134 26.4726 166.069 26.4726C166.99 26.4726 167.714 27.2038 167.714 28.2525C167.714 29.3035 166.99 30.0324 166.069 30.0324ZM166.069 26.2714C165.02 26.2714 164.123 27.0607 164.123 28.2525C164.123 29.3795 164.931 30.227 166.069 30.227C167.102 30.227 168.001 29.4399 168.001 28.2525C168.001 27.0607 167.102 26.2714 166.069 26.2714Z" fill="white"/>
<path d="M165.601 28.0898V27.3698H166.089C166.335 27.3698 166.626 27.4055 166.626 27.7052C166.626 28.063 166.355 28.0898 166.053 28.0898H165.601ZM166.986 27.7521C166.986 27.2803 166.695 27.0791 166.131 27.0791H165.244V29.4203H165.626V28.4208H165.988L166.594 29.4203H167.028L166.373 28.3917C166.726 28.3514 166.986 28.177 166.986 27.7521ZM29.0605 21.8676L28.3092 19.7411L21.9362 11.2237L23.0811 10.9397L34.0694 20.4387L40.5362 18.5895C41.2965 18.3927 42.1597 18.3502 42.8171 18.3547C40.7845 13.9719 37.0658 10.374 32.1553 8.62536C22.4483 5.1661 11.7754 10.2376 8.32284 19.949C7.25398 22.9521 6.99901 26.0514 7.44847 28.9986L22.9403 23.6163L29.0605 21.8676ZM43.4977 20.0333C42.9297 20.4023 42.0957 20.8853 41.2684 21.1514L34.7881 23.0007L30.4635 36.8824L29.3409 37.2469L30.2533 26.6455L29.7434 24.4429L23.6702 26.1759L7.61935 29.9549C8.88946 36.1333 13.2633 41.5134 19.6384 43.7853C29.3476 47.2446 40.0161 42.1709 43.4686 32.4661C44.9579 28.2824 44.8617 23.9174 43.4977 20.0333Z" fill="white"/>
<path d="M29.7428 24.4434L30.2548 26.6437L29.3403 37.2451L30.4628 36.8806L34.7874 23.0011L41.2677 21.1518C42.095 20.8857 42.9291 20.3983 43.4971 20.0338C43.2976 19.4634 43.0707 18.903 42.8173 18.3545C42.1599 18.35 41.2967 18.3947 40.5365 18.587L34.0696 20.4408L23.0791 10.9373L21.9365 11.2235L28.3072 19.7408L29.0608 21.8652L22.9383 23.6183L7.44873 28.9961C7.49792 29.3181 7.5538 29.6379 7.61865 29.9554L23.6717 26.1764L29.7428 24.4434Z" fill="#2D2D2D"/>
</g>
</svg>
