<svg width="162" height="35" viewBox="0 0 162 35" fill="none" xmlns="http://www.w3.org/2000/svg">
<path d="M80.6866 29.1584C85.7514 29.1584 89.1254 25.8763 89.1254 20.3371V6.16797H83.5863V20.1153C83.5863 22.6936 82.6605 23.9712 80.7172 23.9712C78.8428 23.9712 78.0395 22.663 78.0395 20.1153V6.16797H72.4697V20.3371C72.4774 25.9987 75.5606 29.1584 80.6866 29.1584Z" fill="white"/>
<path d="M103.968 7.40739C102.438 6.32863 100.625 6.16797 98.2376 6.16797H90.7246V28.8065H96.2637V21.5154H97.8551C100.212 21.5154 101.994 21.3547 103.432 20.4978C105.689 19.1283 107.028 16.7107 107.028 13.7805C107.028 10.942 105.98 8.80747 103.968 7.40739ZM97.3501 16.6112H96.3326V11.2328H97.7939C100.25 11.2328 101.428 11.9978 101.428 13.8723C101.42 15.9074 100.089 16.6112 97.3501 16.6112Z" fill="white"/>
<path d="M150.966 28.8065V6.16797H145.434V18.7458L137.118 6.16797H132.122V28.8065H137.661V16.1981L146.1 28.8065H150.966Z" fill="white"/>
<path d="M67.534 9.09826C65.3382 6.9331 62.4769 5.75488 59.4472 5.75488C56.2339 5.75488 53.426 6.87189 51.1997 9.06765C48.9733 11.2634 47.7568 14.1324 47.7568 17.2539C47.7568 20.5973 48.8432 23.3975 50.9701 25.6621C53.1965 28.0185 56.0655 29.2274 59.4089 29.2274C62.561 29.2274 65.5525 27.9879 67.7482 25.6927C69.8828 23.497 71.0304 20.5973 71.0304 17.3534C71.038 14.2549 69.8292 11.3552 67.534 9.09826ZM59.4166 23.6194C56.2951 23.6194 53.4643 20.8804 53.4643 17.3152C53.4643 14.0024 56.1038 11.3629 59.4854 11.3629C62.6681 11.3629 65.3153 14.0024 65.3153 17.3152C65.3076 21.0028 62.6681 23.6194 59.4166 23.6194Z" fill="white"/>
<path d="M127.532 9.09826C125.336 6.9331 122.467 5.75488 119.445 5.75488C116.224 5.75488 113.424 6.87189 111.198 9.06765C108.971 11.2634 107.755 14.1324 107.755 17.2539C107.755 20.5973 108.841 23.3975 110.968 25.6621C113.202 28.0185 116.064 29.2274 119.407 29.2274C122.559 29.2274 125.551 27.9879 127.746 25.6927C129.881 23.497 131.028 20.5973 131.028 17.3534C131.036 14.2549 129.827 11.3552 127.532 9.09826ZM119.415 23.6194C116.293 23.6194 113.462 20.8804 113.462 17.3152C113.462 14.0024 116.109 11.3629 119.483 11.3629C122.666 11.3629 125.313 14.0024 125.313 17.3152C125.306 21.0028 122.659 23.6194 119.415 23.6194Z" fill="white"/>
<path d="M9.2057 25.6545C11.4321 28.0109 14.2705 29.2503 17.6139 29.2503C21.4698 29.2503 25.0963 27.3376 27.2615 24.1855C28.5697 22.2728 29.2047 20.1077 29.2047 17.56C29.2047 17.0856 29.1741 16.573 29.1435 16.0604H16.2444V20.582H22.7093C21.5923 22.5559 19.7178 23.6423 17.6139 23.6423C14.4924 23.6423 11.6922 20.8728 11.6922 17.2693C11.6922 14.0177 14.3011 11.317 17.6139 11.317C19.3965 11.317 20.8578 12.0514 22.2655 13.5127H28.5697C26.7565 8.66982 22.518 5.70898 17.6827 5.70898C14.4694 5.70898 11.6692 6.8566 9.43522 9.05236C7.20886 11.2481 6.00004 14.1171 6.00004 17.2387C5.99239 20.5897 7.07114 23.3898 9.2057 25.6545Z" fill="white"/>
<path d="M41.7744 21.0334C44.9877 20.1382 46.9004 17.4069 46.9004 13.7422C46.9004 10.942 45.8523 8.80747 43.8401 7.40739C42.31 6.32863 40.4967 6.16797 38.1097 6.16797H30.5967V28.8065H36.1358V21.5154L40.4661 28.8065H47.3135L41.7744 21.0334ZM37.2222 16.6112H36.1435V11.2328H37.6736C40.1219 11.2328 41.3001 11.9978 41.3001 13.8723C41.3001 15.9074 39.9612 16.6112 37.2222 16.6112Z" fill="white"/>
<path d="M154.294 9.03723C154.769 9.03723 155.174 8.86891 155.503 8.53228C155.84 8.19565 156 7.79016 156 7.32346C156 6.84912 155.832 6.45128 155.503 6.1223C155.174 5.79332 154.769 5.625 154.294 5.625C153.827 5.625 153.422 5.79332 153.093 6.1223C152.756 6.45893 152.596 6.85677 152.596 7.32346C152.596 7.79781 152.764 8.2033 153.093 8.53228C153.422 8.86891 153.82 9.03723 154.294 9.03723ZM153.261 6.28296C153.552 5.99224 153.896 5.84687 154.302 5.84687C154.707 5.84687 155.059 5.99224 155.342 6.28296C155.625 6.56604 155.771 6.91798 155.771 7.32346C155.771 7.72895 155.625 8.08089 155.342 8.37162C155.059 8.66234 154.715 8.80771 154.302 8.80771C153.896 8.80771 153.544 8.66234 153.261 8.37162C152.978 8.08089 152.833 7.7366 152.833 7.32346C152.833 6.91798 152.971 6.57369 153.261 6.28296Z" fill="white"/>
<path d="M155.052 8.22648C155.045 8.21118 155.037 8.18057 155.037 8.12702C155.037 8.08112 155.029 8.02756 155.029 7.98931V7.85159C155.029 7.75978 154.999 7.66032 154.93 7.56086C154.861 7.46141 154.754 7.4002 154.609 7.37725C154.723 7.36195 154.815 7.33134 154.876 7.28544C154.999 7.20893 155.06 7.07887 155.06 6.9182C155.06 6.68103 154.96 6.52036 154.769 6.44386C154.662 6.39795 154.494 6.375 154.257 6.375H153.599V8.24943H153.928V7.51496H154.188C154.364 7.51496 154.486 7.53791 154.555 7.57617C154.677 7.64502 154.731 7.79039 154.731 8.00461V8.14997L154.739 8.21118V8.23413C154.739 8.24178 154.739 8.24943 154.746 8.24943H155.052V8.22648ZM154.555 7.23953C154.486 7.27014 154.379 7.27779 154.241 7.27779H153.943V6.59687H154.226C154.41 6.59687 154.54 6.61982 154.624 6.66573C154.708 6.71163 154.746 6.80344 154.746 6.94115C154.746 7.09417 154.677 7.19363 154.555 7.23953Z" fill="white"/>
</svg>
