<svg width="122" height="82" viewBox="0 0 122 82" fill="none" xmlns="http://www.w3.org/2000/svg">
<path d="M24.4291 57.8463C21.6329 57.7343 19.3451 56.9629 17.5563 55.5302C17.2149 55.2565 16.4014 54.4358 16.1285 54.0897C15.4031 53.1701 14.9099 52.2751 14.581 51.2822C13.5688 48.2255 14.0897 44.2145 16.071 39.8125C17.7675 36.0438 20.3851 32.306 24.9519 27.1292C25.6247 26.3675 27.628 24.1396 27.6409 24.1396C27.6457 24.1396 27.5365 24.3303 27.3991 24.5625C26.2117 26.5678 25.1957 28.9298 24.6422 30.9746C23.753 34.2558 23.8603 37.0715 24.9562 39.2549C25.7123 40.7591 27.0084 42.062 28.4659 42.7822C31.0175 44.0426 34.7531 44.1469 39.3152 43.0873C39.6293 43.0139 55.1933 38.8485 73.9022 33.8305C92.6111 28.812 107.921 24.7093 107.923 24.7126C107.929 24.717 64.4573 43.4711 41.8907 53.2005C38.3169 54.7409 37.3612 55.13 35.681 55.7247C31.3861 57.2453 27.5389 57.9709 24.4291 57.8463Z" fill="white"/>
</svg>
