<svg width="187" height="44" viewBox="0 0 187 44" fill="none" xmlns="http://www.w3.org/2000/svg">
<path d="M114.998 29.2647C118.156 29.2647 119.132 27.0659 119.793 24.4174H118.312C116.261 24.4174 112.856 24.7701 112.856 27.5417C112.856 28.6902 113.926 29.2647 114.998 29.2647ZM119.132 29.4874H119.068C117.618 31.3365 116.167 32.3889 113.831 32.3889C110.9 32.3889 108.818 30.7305 108.818 27.7038C108.818 22.284 114.811 21.8687 118.785 21.8687H120.266C120.394 21.4212 120.394 20.9432 120.394 20.4671C120.394 18.8087 118.627 18.3307 117.144 18.3307C115.284 18.3307 113.485 18.8087 111.814 19.6057L112.414 16.1943C114.21 15.5575 116.041 15.2064 117.934 15.2064C121.181 15.2064 124.242 16.4188 124.242 20.2745C124.242 22.475 122.633 28.9133 122.253 32.0071H118.691L119.132 29.4874ZM9.56425 15.5742H12.6234L13.3486 12.1963L17.8914 10.6967L16.8503 15.5742H20.6344L19.9726 18.6984H16.1876L14.6419 25.8716C14.5475 26.2545 14.4533 26.8273 14.4533 27.4641C14.4533 28.4519 15.1156 29.0582 16.0607 29.0582C16.8193 29.0582 17.5755 28.8994 18.1113 28.6764L17.3868 31.9918C16.6612 32.1503 15.8419 32.375 15.1156 32.375C12.2456 32.375 10.2261 31.2262 10.2261 28.0687C10.2261 26.7948 10.4786 25.5521 10.7618 24.2464L11.961 18.6984H8.90186L9.56425 15.5742ZM23.9163 8.49599H28.1431L27.26 12.5782H23.0329L23.9163 8.49599ZM22.3704 15.5742H26.5976L23.1274 31.9918H18.8997L22.3704 15.5742ZM39.3602 19.3355C38.5407 18.7934 37.4369 18.5075 36.269 18.5075C32.8948 18.5075 31.0025 21.6947 31.0025 24.7873C31.0025 26.9218 31.6953 29.0582 34.5979 29.0582C35.6395 29.0582 36.933 28.7714 38.036 28.2288L37.5622 31.61C36.269 32.2468 34.8811 32.375 33.4932 32.375C29.2987 32.375 26.587 29.5376 26.587 25.2972C26.587 19.5599 30.3398 15.1926 36.1741 15.1926C37.7525 15.1926 39.2659 15.4797 40.4013 15.8291L39.3602 19.3355ZM43.9959 8.08398H48.2227L45.4145 21.5359H45.4797L51.3777 15.5742H56.8652L49.0757 23.0657L53.9628 31.9918H49.2005L45.0043 23.289H44.9426L43.1128 31.9918H38.981L43.9959 8.08398ZM72.1008 15.5742H75.16L75.8852 12.1963L80.4278 10.6967L79.387 15.5742H83.1721L82.5089 18.6984H78.7244L77.1784 25.8716C77.0839 26.2545 76.9904 26.8273 76.9904 27.4641C76.9904 28.4519 77.6519 29.0582 78.5987 29.0582C79.3553 29.0582 80.112 28.8994 80.6475 28.6764L79.9239 31.9918C79.1974 32.1503 78.3776 32.375 77.6519 32.375C74.7819 32.375 72.7626 31.2262 72.7626 28.0687C72.7626 26.7948 73.0149 25.5521 73.2997 24.2464L74.4971 18.6984H71.4384L72.1008 15.5742Z" fill="white"/>
<path d="M70.6875 21.4393C70.6875 17.2646 68.0385 15.1922 64.0328 15.1922C58.7024 15.1922 54.79 20.1015 54.79 25.2006C54.79 30.078 57.9446 32.3746 62.6141 32.3746C64.3479 32.3746 66.1462 31.9595 67.7863 31.4491L68.322 28.0682C66.7452 28.8042 65.0725 29.2503 63.3378 29.2503C60.6351 29.2503 59.0553 28.2789 58.853 25.6985H58.8497C58.8423 25.5489 58.8277 25.402 58.8277 25.245C58.8277 25.2145 58.8291 25.1837 58.8291 25.1535C58.8291 25.136 58.8277 25.123 58.8277 25.1056H58.8307C58.8497 23.9819 59.0937 22.8733 59.5184 21.8486C60.3307 19.7598 61.4779 18.3165 63.9695 18.3165C65.7347 18.3165 66.6506 19.3029 66.6506 21.0574C66.6506 21.4393 66.6183 21.7903 66.5564 22.1722H60.7724C60.3971 23.4627 60.3321 24.3269 60.3245 25.1056H70.2768C70.5293 23.8932 70.6875 22.6824 70.6875 21.4393ZM84.9962 17.3912C85.1212 16.7541 85.2482 16.0855 85.3423 15.5738H89.2861L88.9071 17.773H88.9703C90.1059 16.0855 91.9659 15.1922 93.9529 15.1922C95.8774 15.1922 97.8644 16.3391 98.0855 18.3165H98.1487C99.2218 16.18 101.588 15.1922 103.857 15.1922C106.285 15.1922 108.369 17.2 108.369 19.6861C108.369 21.1519 107.988 22.8104 107.642 24.1482L105.939 31.9914H101.711L103.416 23.9894C103.637 23.0013 103.952 21.4698 103.952 20.4833C103.952 19.271 103.038 18.507 101.965 18.507C99.0309 18.507 98.3059 21.9508 97.769 24.1817L96.0985 31.9914H91.8718L93.5753 23.9894C93.797 23.0013 94.1115 21.4698 94.1115 20.4833C94.1115 19.271 93.1956 18.507 92.1231 18.507C89.2538 18.507 88.4649 21.9813 87.9294 24.1817L86.2568 31.9914H82.0315L84.9962 17.3912ZM136.795 18.9166C136.342 18.6661 135.175 18.3165 133.977 18.3165C132.715 18.3165 131.138 18.6661 131.138 19.9718C131.138 22.0453 136.626 22.8104 136.626 26.8269C136.626 31.1 132.936 32.3746 129.311 32.3746C127.606 32.3746 125.902 32.1197 124.357 31.3851L125.273 27.9749C126.469 28.6427 127.67 29.2503 129.311 29.2503C130.727 29.2503 132.211 28.771 132.211 27.4332C132.211 24.7869 126.723 24.53 126.723 20.419C126.723 16.5635 130.413 15.1922 133.756 15.1922C135.302 15.1922 136.88 15.4792 137.711 15.6976L136.795 18.9166ZM139.498 15.5738H142.557L143.282 12.1959L147.822 10.6963L146.782 15.5738H150.568L149.906 18.698H146.119L144.574 25.8712C144.48 26.2541 144.385 26.8269 144.385 27.4636C144.385 28.4515 145.049 29.0578 145.994 29.0578C146.751 29.0578 147.508 28.899 148.044 28.6759L147.318 31.9914C146.592 32.1499 145.774 32.3746 145.049 32.3746C142.177 32.3746 140.159 31.2258 140.159 28.0682C140.159 26.7944 140.413 25.5517 140.696 24.246L141.894 18.698H138.834L139.498 15.5738ZM168.152 17.773C168.283 17.0407 168.409 16.3076 168.531 15.5738H172.569L172 18.6661H172.064C172.823 16.881 174.902 15.1922 176.858 15.1922C177.395 15.1922 177.961 15.2226 178.466 15.3507L177.583 19.5259C177.111 19.3669 176.509 19.271 175.974 19.271C172.976 19.271 171.526 21.9813 170.991 24.6275L169.477 31.9914H165.251L168.152 17.773ZM165.219 21.4393C165.219 17.2646 162.57 15.1922 158.564 15.1922C153.235 15.1922 149.322 20.1015 149.322 25.2006C149.322 30.078 152.476 32.3746 157.145 32.3746C158.878 32.3746 160.677 31.9595 162.318 31.4491L162.853 28.0682C161.276 28.8042 159.605 29.2503 157.87 29.2503C155.166 29.2503 153.587 28.2789 153.383 25.6985H153.38C153.374 25.5489 153.359 25.402 153.359 25.245C153.359 25.2145 153.361 25.1837 153.361 25.1535C153.361 25.136 153.359 25.123 153.359 25.1056H153.361C153.38 23.9819 153.624 22.8733 154.049 21.8486C154.86 19.7598 156.008 18.3165 158.5 18.3165C160.266 18.3165 161.182 19.3029 161.182 21.0574C161.182 21.4393 161.149 21.7903 161.088 22.1722H155.304C154.927 23.4627 154.863 24.3269 154.854 25.1056H164.809C165.061 23.8932 165.219 22.6824 165.219 21.4393Z" fill="white"/>
</svg>
