<svg width="198" height="62" viewBox="0 0 198 62" fill="none" xmlns="http://www.w3.org/2000/svg">
<mask id="mask0_2885_4773" style="mask-type:luminance" maskUnits="userSpaceOnUse" x="0" y="0" width="198" height="62">
<path d="M0 -7.55151e-05H198V61.2686H0V-7.55151e-05Z" fill="white"/>
</mask>
<g mask="url(#mask0_2885_4773)">
<path d="M184.123 43.4184C183.415 43.4184 182.855 43.9799 182.855 44.6832C182.855 45.3869 183.415 45.9473 184.123 45.9473C184.829 45.9473 185.389 45.3869 185.389 44.6832C185.39 44.5167 185.358 44.3517 185.295 44.1978C185.231 44.0438 185.138 43.9039 185.02 43.7863C184.902 43.6686 184.762 43.5755 184.608 43.5123C184.454 43.4492 184.289 43.4174 184.123 43.4184ZM184.123 45.7538C183.543 45.7538 183.048 45.2801 183.048 44.6832C183.048 44.0855 183.543 43.6144 184.123 43.6144C184.701 43.6144 185.194 44.0855 185.194 44.6832C185.194 45.2799 184.701 45.7538 184.123 45.7538Z" fill="white"/>
<path d="M184.742 44.3474C184.742 44.0496 184.501 43.9819 184.25 43.9819H183.649V45.3653H183.843V44.7264H184.078L184.49 45.3653H184.724L184.307 44.7264C184.553 44.7192 184.742 44.6208 184.742 44.3474ZM184.078 44.534H183.843V44.1774H184.212C184.362 44.1774 184.549 44.2025 184.549 44.344C184.549 44.5645 184.246 44.5342 184.078 44.5342M176.007 45.9639C176.261 45.2713 176.479 44.5658 176.66 43.8503C177.02 42.3557 177.201 40.8238 177.2 39.2865C177.2 38.3873 177.138 37.4976 177.018 36.6221C176.929 37.8978 176.707 39.0158 176.707 39.0158C176.759 39.1843 176.852 39.461 176.895 39.6317L176.895 39.6325C176.76 40.9266 176.514 42.2068 176.16 43.4589C175.993 42.8409 175.768 42.2461 175.753 42.2077L175.752 42.2056C175.301 43.4085 174.626 44.8248 174.014 45.9639H176.007Z" fill="white"/>
<path d="M171.829 45.9639H172.981C176.261 41.1194 176.426 36.826 176.426 36.0034C176.426 34.4494 176.165 33.0216 175.728 31.891C175.728 31.891 175.047 30.1339 173.988 28.5704C174.104 28.9198 174.326 29.6281 174.449 30.2608C174.457 30.303 174.463 30.3403 174.469 30.3747C174.678 30.7228 175.62 32.3829 175.745 34.2085L175.746 34.2139C175.746 34.2139 175.081 33.2821 174.587 32.6933C174.57 33.6966 174.439 34.7009 174.229 35.6707C174.229 35.6707 175.215 36.8122 175.656 37.5485C175.656 37.5485 175.356 39.1542 174.713 40.6929C174.059 39.7415 173.223 38.8174 173.223 38.8174C172.734 40.0259 172.115 41.242 171.428 42.3665C171.428 42.3665 172.677 43.8281 172.951 44.2448C172.584 44.8623 172.226 45.3999 171.829 45.9639Z" fill="white"/>
<path d="M167.723 45.9639C169.9 43.5297 171.754 40.6663 172.868 37.6002C173.835 34.9403 174.361 31.6918 173.505 28.8023C173.447 28.6077 173.382 28.4155 173.309 28.2261C173.035 27.5194 172.68 26.9031 172.294 26.419C171.252 25.2537 170.073 24.2187 168.783 23.3365C168.97 23.576 169.142 23.8274 169.296 24.0889C169.296 24.0889 170.869 25.2554 171.782 26.4406C170.611 25.6063 169.948 25.2686 169.862 25.2259C169.859 25.2244 169.855 25.2229 169.852 25.2212C170.297 26.3177 170.431 27.2258 170.431 27.2273C170.431 27.2273 171.82 27.9524 173.072 29.0357C173.245 29.8367 173.316 30.6574 173.305 31.4791C172.044 30.3698 170.584 29.5035 170.584 29.5035C170.558 30.4428 170.428 31.3942 170.221 32.3191C170.221 32.3191 171.599 33.1916 172.942 34.4148C172.942 34.4148 172.556 36.1481 171.934 37.5112C170.646 36.3119 169.39 35.3784 169.291 35.3055C169.291 35.3055 168.651 36.9734 167.615 38.6472C168.905 39.7692 170.117 40.9325 170.117 40.9325C169.377 42.0879 168.539 43.188 167.635 44.2166L167.634 44.2175L165.327 41.92C164.389 43.0793 163.367 44.1685 162.271 45.1789C162.322 45.2372 162.787 45.7528 162.978 45.9639H167.723Z" fill="white"/>
<path d="M168.316 23.5931C168.167 23.389 167.998 23.1808 167.804 22.9958C167.634 22.8337 167.469 22.6874 167.294 22.556C165.374 21.1084 161.841 20.3848 161.841 20.3848C162.053 20.498 162.259 20.6198 162.461 20.75C162.478 20.7543 163.902 21.1114 165.166 21.7294C165.166 21.7294 164.016 21.4684 163.279 21.3667C163.588 21.6398 163.872 21.9403 164.127 22.2644C164.127 22.2644 166.472 22.6921 167.501 23.2565C167.501 23.2565 167.994 23.7634 168.396 24.6527C166.79 24.0004 164.97 23.6603 164.97 23.6603C165.212 24.2015 165.385 24.7811 165.491 25.3842C165.491 25.3842 167.491 25.8736 168.994 26.5955C169.124 27.3093 169.172 28.0473 169.144 28.7938C167.369 27.9034 165.606 27.3444 165.606 27.3444C165.571 28.1141 165.447 28.9117 165.239 29.7264C165.239 29.7264 167.663 30.8088 168.753 31.4661C168.512 32.4284 168.174 33.371 167.769 34.2785C166.11 33.2006 164.354 32.2421 164.354 32.2421C163.912 33.3013 162.827 35.0362 162.827 35.0362L162.829 35.0369C162.856 35.0557 164.662 36.2953 166.047 37.3954C165.359 38.4383 164.583 39.4397 163.738 40.3921C163.447 40.1135 160.785 37.7503 160.785 37.7503C159.981 38.6819 159.087 39.5894 158.107 40.4581C158.107 40.4581 158.107 40.4585 158.108 40.4587L160.674 43.3631C160.674 43.3631 160.674 43.3631 160.675 43.3635L160.674 43.3639C159.01 44.7343 157.35 45.773 157.35 45.773L155.209 42.7329C155.209 42.7329 153.702 43.8795 151.159 45.0829V45.9639H159.511C168.832 38.911 172.14 28.8258 168.316 23.5931Z" fill="white"/>
<path d="M163.588 22.535C161.272 19.4188 157.648 19.864 156.568 20.0151C155.381 20.1815 154.483 20.4413 154.483 20.4413C154.749 20.4662 155.11 20.5136 155.37 20.5654C155.562 20.5202 157.229 20.1403 158.439 20.299L158.443 20.2992C157.553 20.3958 156.339 20.7628 156.212 20.8016C156.211 20.802 156.211 20.8027 156.209 20.8033L156.213 20.8048C156.257 20.8176 156.607 20.9238 157.056 21.1871C157.187 21.1519 158.835 20.7146 160.408 20.6838V20.6842C160.408 20.6842 160.988 20.9419 161.548 21.3261C159.517 21.3183 157.835 21.7084 157.789 21.7191C158.048 21.9477 158.279 22.2062 158.477 22.4892C160.703 22.1556 162.625 22.3002 162.625 22.3002C162.625 22.3002 162.886 22.6189 163.004 22.7902C163.152 23.0059 163.304 23.274 163.422 23.5095C161.149 23.2437 158.975 23.4338 158.973 23.4338C159.123 23.8208 159.225 24.2348 159.28 24.67C159.531 24.6681 161.456 24.6717 163.908 25.1131C163.987 25.6752 163.995 26.2774 163.933 26.9129C163.516 26.8045 161.503 26.3017 159.307 26.0837C159.262 26.6326 159.158 27.2041 158.997 27.7901C159.243 27.8481 161.957 28.4949 163.477 29.1107C163.447 29.2069 163.416 29.3028 163.385 29.3983C163.167 30.0509 162.895 30.7062 162.573 31.3594C161.349 30.7569 158.348 29.5835 158.348 29.5835C158.048 30.2548 157.681 30.9344 157.252 31.6126C157.252 31.6126 159.825 33.0811 161.065 33.8941C160.474 34.7344 159.829 35.5348 159.134 36.2901C158.235 35.4838 155.987 33.7418 155.817 33.6104C155.092 34.4737 154.179 35.3816 153.905 35.65L156.603 38.7436C156.578 38.766 156.552 38.7888 156.526 38.8118C155.942 39.2958 155.313 39.7513 154.781 40.1165C154.32 40.4299 153.939 40.6727 153.808 40.7575C153.776 40.7098 152.01 37.8894 151.744 37.4406C151.552 37.5827 151.357 37.7216 151.159 37.8572V43.6553C151.477 43.5022 151.795 43.3437 152.112 43.1753C153.633 42.4262 155.109 41.4758 156.483 40.3778C157.442 39.6168 158.349 38.7929 159.198 37.9116C160.282 36.8006 161.222 35.6367 162.007 34.4573C164.983 30.0652 165.78 25.4859 163.588 22.535Z" fill="white"/>
<path d="M157.582 22.3C156.479 21.0346 154.644 20.6012 152.512 20.906C152.454 20.9147 152.393 20.923 152.339 20.932C152.174 20.9603 152.009 20.9928 151.846 21.0293C151.516 21.1057 151.291 21.181 151.159 21.232V21.8702C151.368 21.705 151.583 21.5479 151.804 21.3992C152.229 21.3083 152.642 21.2505 153.04 21.2243C152.424 21.5758 151.714 22.0526 151.159 22.4927V22.984L151.178 22.9953C151.178 22.9953 152.741 21.7582 153.983 21.2251C154.272 21.2451 154.559 21.2873 154.842 21.3512C152.987 22.1382 151.617 23.1145 151.522 23.183C151.657 23.265 151.786 23.3562 151.909 23.4559C151.933 23.4409 153.732 22.3158 155.711 21.6415C155.98 21.7642 156.239 21.9171 156.464 22.0901C154.308 22.6958 152.236 23.7775 152.236 23.7775C152.353 23.9137 152.457 24.061 152.545 24.2174L152.582 24.2027C154.788 23.2585 157.132 22.7743 157.132 22.7743C157.32 23.0326 157.471 23.3155 157.582 23.615C157.582 23.615 155.478 23.8556 152.771 24.7238C152.891 25.0976 152.924 25.3789 152.924 25.3813C152.924 25.3813 155.475 24.8105 157.828 24.7473C157.861 25.1253 157.85 25.5496 157.795 25.9848C156.402 25.9114 153.082 26.0882 152.952 26.0983C152.952 26.0983 152.94 26.5765 152.816 27.0264C152.816 27.0264 155.241 27.1043 157.447 27.5158C157.273 28.0513 157.057 28.5722 156.801 29.0737C155.33 28.6321 153.099 28.0958 152.512 27.961C152.352 28.3518 152.159 28.7278 151.933 29.0846C151.933 29.0846 154.659 30.2743 155.706 30.8564H155.708L155.707 30.8575C155.253 31.5374 154.353 32.4892 154.353 32.4892C154.107 32.3051 153.86 32.1223 153.612 31.9406C152.889 31.4348 151.817 30.6837 151.165 30.2299L151.159 30.2261V32.4807L152.573 34.1323C152.12 34.4979 151.648 34.8398 151.159 35.1568V36.502L151.211 36.4681C151.875 36.0159 152.511 35.5248 153.117 34.9975C157.995 30.7526 159.994 25.0675 157.582 22.3Z" fill="white"/>
<path d="M151.159 28.7611C152.405 26.9867 152.586 24.9503 151.491 23.9562C151.388 23.8628 151.277 23.7828 151.159 23.7137V28.7611ZM157.963 19.2219C169.019 19.2219 178.014 28.2506 178.014 39.3482C178.014 41.5991 177.633 43.8386 176.897 45.9639H181.819V15.3036H151.158V20.4174L151.182 20.4087C153.356 19.6216 155.651 19.2198 157.963 19.2217M138.33 25.0792C137.581 24.4128 136.626 23.8957 135.463 23.5285C134.299 23.1614 132.902 22.9777 131.269 22.9777H123.005V38.2819H131.269C134.208 38.2819 136.483 37.646 138.095 36.3738C139.707 35.1022 140.513 33.1876 140.513 30.63C140.513 29.4873 140.336 28.4429 139.982 27.4976C139.629 26.5519 139.078 25.746 138.33 25.0792ZM135.565 32.548C135.394 33.0651 135.119 33.4798 134.738 33.7924C134.357 34.1061 133.864 34.3303 133.259 34.466C132.653 34.6023 131.922 34.67 131.065 34.67H127.454V26.5893H131.065C131.949 26.5893 132.694 26.6646 133.3 26.8137C133.904 26.9639 134.394 27.2015 134.769 27.5281C135.143 27.8545 135.412 28.2728 135.575 28.7829C135.738 29.2934 135.819 29.9088 135.819 30.63C135.819 31.3916 135.734 32.0309 135.565 32.5482M105.436 31.997H113.802V28.9973H105.436V26.4673H115.373L115.292 22.9773H100.987V38.2819H115.699L115.781 34.8332H105.435L105.436 31.997ZM78.398 22.9775L78.276 26.5893H84.1322V38.2817H88.6011V26.5891H94.4574L94.3557 22.9775H78.398ZM66.971 38.2819H71.5011V22.9775H66.971V38.2819ZM54.4009 30.5887L54.442 32.2214L54.4009 32.262L53.2376 31.0785L44.9534 22.9775H41.2802V38.2819H45.3204V30.2424L45.28 28.5892L45.3408 28.5689L46.5041 29.7318L55.5232 38.2819H58.4416V22.9777H54.4009V30.5887ZM28.9755 31.6094C28.9755 32.7656 28.6489 33.6262 27.996 34.1908C27.3432 34.7555 26.2953 35.0375 24.8535 35.0375C23.3978 35.0375 22.3299 34.7555 21.6498 34.1908C20.9693 33.626 20.6293 32.7656 20.6293 31.6094V22.9777H16.1812V31.5687C16.1812 33.9355 16.9258 35.7007 18.4156 36.864C19.9052 38.027 22.051 38.6085 24.8535 38.6085C27.6693 38.6085 29.7985 38.0304 31.2406 36.8742C32.6824 35.7178 33.4037 33.9489 33.4037 31.5687V22.9777H28.9755V31.6094Z" fill="white"/>
</g>
</svg>
